<?xml version="1.0" encoding="utf-8"?>
<!-- Generator: Adobe Illustrator 22.1.0, SVG Export Plug-In . SVG Version: 6.00 Build 0)  -->
<svg version="1.1" id="Layer_1" xmlns="http://www.w3.org/2000/svg" xmlns:xlink="http://www.w3.org/1999/xlink" x="0px" y="0px"
	 viewBox="0 0 122 41" style="enable-background:new 0 0 122 41;" xml:space="preserve">
<style type="text/css">
	.st0{enable-background:new    ;}
	.st1{fill:#5E5E5E;}
</style>
<image style="overflow:visible;enable-background:new    ;" width="122" height="41" id="Background_copy" xlink:href="517E9EB1.jpg"  transform="matrix(1 0 0 1 0 1.682073e-05)">
</image>
<g id="Anmelden" class="st0">
	<path class="st1" d="M54.3,25.4h-1.8l-0.9-2.5h-3.9l-0.8,2.5h-1.8l3.7-9.8h1.8L54.3,25.4z M51.2,21.6l-1.4-3.9
		c0-0.1-0.1-0.3-0.1-0.6h0c0,0.3-0.1,0.5-0.1,0.6l-1.3,3.9H51.2z"/>
	<path class="st1" d="M61.7,25.4h-1.6v-3.9c0-1.3-0.5-2-1.4-2c-0.5,0-0.9,0.2-1.2,0.5S57,20.9,57,21.4v4h-1.6v-7H57v1.2h0
		c0.5-0.9,1.3-1.3,2.3-1.3c0.8,0,1.3,0.2,1.7,0.7c0.4,0.5,0.6,1.2,0.6,2.1V25.4z"/>
	<path class="st1" d="M74.1,25.4h-1.6v-3.8c0-0.7-0.1-1.3-0.3-1.6c-0.2-0.3-0.6-0.5-1-0.5c-0.4,0-0.8,0.2-1.1,0.6
		c-0.3,0.4-0.4,0.9-0.4,1.5v3.8H68v-3.9c0-1.3-0.5-2-1.4-2c-0.4,0-0.8,0.2-1.1,0.6c-0.3,0.4-0.4,0.9-0.4,1.5v3.8h-1.6v-7h1.6v1.1h0
		c0.5-0.8,1.2-1.3,2.2-1.3c0.5,0,0.9,0.1,1.3,0.4c0.4,0.3,0.6,0.6,0.7,1c0.5-1,1.3-1.4,2.3-1.4c1.5,0,2.3,1,2.3,2.9V25.4z"/>
	<path class="st1" d="M81.9,22.4h-4.8c0,0.6,0.2,1.1,0.6,1.5c0.4,0.4,0.9,0.5,1.6,0.5c0.7,0,1.4-0.2,2.1-0.7V25
		c-0.6,0.4-1.5,0.6-2.5,0.6c-1,0-1.8-0.3-2.4-1c-0.6-0.6-0.9-1.5-0.9-2.7c0-1.1,0.3-2,1-2.7c0.6-0.7,1.4-1,2.4-1s1.7,0.3,2.2,0.9
		c0.5,0.6,0.8,1.5,0.8,2.6V22.4z M80.4,21.2c0-0.6-0.1-1-0.4-1.3c-0.3-0.3-0.6-0.5-1.1-0.5c-0.5,0-0.8,0.2-1.2,0.5
		c-0.3,0.3-0.5,0.8-0.6,1.3H80.4z"/>
	<path class="st1" d="M85,25.4h-1.6V15.1H85V25.4z"/>
	<path class="st1" d="M93.5,25.4h-1.6v-1.2h0c-0.5,0.9-1.3,1.4-2.4,1.4c-0.9,0-1.6-0.3-2.1-0.9c-0.5-0.6-0.8-1.5-0.8-2.6
		c0-1.2,0.3-2.1,0.9-2.8s1.3-1,2.3-1c0.9,0,1.6,0.4,2.1,1.1h0v-4.3h1.6V25.4z M91.9,22.2v-0.9c0-0.5-0.2-0.9-0.5-1.3
		c-0.3-0.3-0.7-0.5-1.2-0.5c-0.6,0-1.1,0.2-1.4,0.7c-0.3,0.4-0.5,1.1-0.5,1.8c0,0.7,0.2,1.3,0.5,1.7c0.3,0.4,0.8,0.6,1.3,0.6
		c0.5,0,1-0.2,1.3-0.6C91.7,23.3,91.9,22.8,91.9,22.2z"/>
	<path class="st1" d="M101.5,22.4h-4.8c0,0.6,0.2,1.1,0.6,1.5c0.4,0.4,0.9,0.5,1.6,0.5c0.7,0,1.4-0.2,2.1-0.7V25
		c-0.6,0.4-1.5,0.6-2.5,0.6c-1,0-1.8-0.3-2.4-1c-0.6-0.6-0.9-1.5-0.9-2.7c0-1.1,0.3-2,1-2.7c0.6-0.7,1.4-1,2.4-1s1.7,0.3,2.2,0.9
		c0.5,0.6,0.8,1.5,0.8,2.6V22.4z M99.9,21.2c0-0.6-0.1-1-0.4-1.3c-0.3-0.3-0.6-0.5-1.1-0.5c-0.5,0-0.8,0.2-1.2,0.5
		c-0.3,0.3-0.5,0.8-0.6,1.3H99.9z"/>
	<path class="st1" d="M109.2,25.4h-1.6v-3.9c0-1.3-0.5-2-1.4-2c-0.5,0-0.9,0.2-1.2,0.5s-0.5,0.8-0.5,1.4v4H103v-7h1.6v1.2h0
		c0.5-0.9,1.3-1.3,2.3-1.3c0.8,0,1.3,0.2,1.7,0.7c0.4,0.5,0.6,1.2,0.6,2.1V25.4z"/>
</g>
</svg>
