<?xml version="1.0" encoding="utf-8"?>
<!-- Generator: Adobe Illustrator 22.1.0, SVG Export Plug-In . SVG Version: 6.00 Build 0)  -->
<svg version="1.1" id="Layer_1" xmlns="http://www.w3.org/2000/svg" xmlns:xlink="http://www.w3.org/1999/xlink" x="0px" y="0px"
	 viewBox="0 0 215 41" style="enable-background:new 0 0 215 41;" xml:space="preserve">
<style type="text/css">
	.st0{enable-background:new    ;}
	.st1{fill:#FFFFFF;}
</style>
<image style="overflow:visible;enable-background:new    ;" width="215" height="41" id="Background" xlink:href="4461F3D1.jpg"  transform="matrix(1 0 0 1 0 1.682073e-05)">
</image>
<g id="Bei_Microsoft_anmelden" class="st0">
	<path class="st1" d="M46.6,25.7V15.6h3.2c1,0,1.8,0.2,2.3,0.6c0.6,0.4,0.9,1,0.9,1.7c0,0.6-0.2,1.1-0.5,1.5
		c-0.3,0.4-0.8,0.7-1.4,0.9v0c0.7,0.1,1.3,0.3,1.7,0.8c0.4,0.4,0.6,1,0.6,1.7c0,0.9-0.3,1.6-1,2.1c-0.7,0.5-1.5,0.8-2.6,0.8H46.6z
		 M48.3,16.9v2.9h1.1c0.6,0,1-0.1,1.4-0.4c0.3-0.3,0.5-0.7,0.5-1.2c0-0.9-0.6-1.3-1.7-1.3H48.3z M48.3,21.2v3.2h1.4
		c0.6,0,1.1-0.1,1.5-0.4c0.3-0.3,0.5-0.7,0.5-1.2c0-1.1-0.7-1.6-2.2-1.6H48.3z"/>
	<path class="st1" d="M61.3,22.5h-4.9c0,0.7,0.2,1.2,0.6,1.6c0.4,0.4,0.9,0.5,1.6,0.5c0.8,0,1.5-0.2,2.1-0.7v1.3
		c-0.7,0.4-1.5,0.6-2.6,0.6c-1.1,0-1.9-0.3-2.5-1c-0.6-0.7-0.9-1.6-0.9-2.8c0-1.1,0.3-2,1-2.8s1.5-1.1,2.5-1.1c1,0,1.8,0.3,2.3,1
		s0.8,1.5,0.8,2.7V22.5z M59.7,21.4c0-0.6-0.1-1-0.4-1.4c-0.3-0.3-0.7-0.5-1.1-0.5c-0.5,0-0.9,0.2-1.2,0.5s-0.5,0.8-0.6,1.4H59.7z"
		/>
	<path class="st1" d="M63.7,16.9c-0.3,0-0.5-0.1-0.7-0.3c-0.2-0.2-0.3-0.4-0.3-0.7s0.1-0.5,0.3-0.7c0.2-0.2,0.4-0.3,0.7-0.3
		c0.3,0,0.5,0.1,0.7,0.3c0.2,0.2,0.3,0.4,0.3,0.7c0,0.3-0.1,0.5-0.3,0.7C64.2,16.9,64,16.9,63.7,16.9z M64.5,25.7h-1.6v-7.3h1.6
		V25.7z"/>
	<path class="st1" d="M81.7,25.7h-1.7v-6.6c0-0.5,0-1.2,0.1-2h0c-0.1,0.4-0.2,0.8-0.3,1l-3,7.6h-1.2l-3-7.5c-0.1-0.2-0.2-0.6-0.3-1
		h0c0,0.4,0.1,1.1,0.1,2v6.6h-1.6V15.6h2.4l2.7,6.8c0.2,0.5,0.3,0.9,0.4,1.2h0c0.2-0.5,0.3-0.9,0.4-1.2l2.7-6.7h2.3V25.7z"/>
	<path class="st1" d="M84.9,16.9c-0.3,0-0.5-0.1-0.7-0.3c-0.2-0.2-0.3-0.4-0.3-0.7s0.1-0.5,0.3-0.7c0.2-0.2,0.4-0.3,0.7-0.3
		c0.3,0,0.5,0.1,0.7,0.3c0.2,0.2,0.3,0.4,0.3,0.7c0,0.3-0.1,0.5-0.3,0.7C85.4,16.9,85.1,16.9,84.9,16.9z M85.7,25.7H84v-7.3h1.6
		V25.7z"/>
	<path class="st1" d="M93,25.4c-0.6,0.3-1.3,0.5-2.1,0.5c-1.1,0-1.9-0.3-2.6-1c-0.7-0.7-1-1.5-1-2.6c0-1.2,0.4-2.2,1.1-2.9
		c0.7-0.7,1.7-1.1,2.9-1.1c0.7,0,1.2,0.1,1.7,0.3v1.5c-0.5-0.4-1-0.6-1.6-0.6c-0.7,0-1.3,0.2-1.7,0.7S89,21.4,89,22.2
		c0,0.8,0.2,1.3,0.6,1.8c0.4,0.4,1,0.7,1.7,0.7c0.6,0,1.1-0.2,1.7-0.6V25.4z"/>
	<path class="st1" d="M98.9,20c-0.2-0.2-0.5-0.2-0.9-0.2c-0.5,0-0.9,0.2-1.2,0.7c-0.3,0.4-0.5,1-0.5,1.8v3.5h-1.6v-7.3h1.6V20h0
		c0.2-0.5,0.4-0.9,0.7-1.2s0.7-0.4,1.1-0.4c0.3,0,0.5,0,0.7,0.1V20z"/>
	<path class="st1" d="M103.1,25.9c-1.1,0-2-0.3-2.7-1c-0.7-0.7-1-1.6-1-2.7c0-1.2,0.3-2.2,1-2.9s1.6-1,2.8-1c1.1,0,2,0.3,2.6,1
		c0.6,0.7,0.9,1.6,0.9,2.8c0,1.2-0.3,2.1-1,2.8C105.2,25.5,104.3,25.9,103.1,25.9z M103.2,19.6c-0.6,0-1.1,0.2-1.5,0.7
		c-0.4,0.4-0.6,1.1-0.6,1.9c0,0.8,0.2,1.4,0.6,1.8c0.4,0.4,0.9,0.7,1.5,0.7c0.6,0,1.1-0.2,1.5-0.6c0.3-0.4,0.5-1,0.5-1.8
		c0-0.8-0.2-1.4-0.5-1.8C104.3,19.8,103.8,19.6,103.2,19.6z"/>
	<path class="st1" d="M108.1,25.5V24c0.6,0.5,1.3,0.7,2,0.7c1,0,1.5-0.3,1.5-0.9c0-0.2,0-0.3-0.1-0.4c-0.1-0.1-0.2-0.2-0.3-0.3
		s-0.3-0.2-0.5-0.2s-0.4-0.2-0.7-0.2c-0.3-0.1-0.6-0.2-0.8-0.4c-0.2-0.1-0.4-0.3-0.6-0.4s-0.3-0.4-0.4-0.6c-0.1-0.2-0.1-0.5-0.1-0.7
		c0-0.3,0.1-0.7,0.2-0.9c0.2-0.3,0.4-0.5,0.7-0.7s0.6-0.3,0.9-0.4c0.4-0.1,0.7-0.1,1.1-0.1c0.7,0,1.3,0.1,1.8,0.3V20
		c-0.5-0.3-1.1-0.5-1.8-0.5c-0.2,0-0.4,0-0.6,0.1s-0.3,0.1-0.4,0.2c-0.1,0.1-0.2,0.2-0.3,0.3c-0.1,0.1-0.1,0.2-0.1,0.4
		c0,0.2,0,0.3,0.1,0.4c0.1,0.1,0.2,0.2,0.3,0.3c0.1,0.1,0.3,0.2,0.5,0.2c0.2,0.1,0.4,0.1,0.6,0.2c0.3,0.1,0.6,0.3,0.8,0.4
		c0.2,0.1,0.5,0.3,0.6,0.5c0.2,0.2,0.3,0.4,0.4,0.6c0.1,0.2,0.1,0.5,0.1,0.8c0,0.4-0.1,0.7-0.3,1s-0.4,0.5-0.7,0.7
		c-0.3,0.2-0.6,0.3-1,0.4c-0.4,0.1-0.8,0.1-1.2,0.1C109.4,25.9,108.7,25.8,108.1,25.5z"/>
	<path class="st1" d="M118,25.9c-1.1,0-2-0.3-2.7-1c-0.7-0.7-1-1.6-1-2.7c0-1.2,0.3-2.2,1-2.9c0.7-0.7,1.6-1,2.8-1
		c1.1,0,2,0.3,2.6,1c0.6,0.7,0.9,1.6,0.9,2.8c0,1.2-0.3,2.1-1,2.8C120.1,25.5,119.2,25.9,118,25.9z M118.1,19.6
		c-0.6,0-1.2,0.2-1.5,0.7s-0.6,1.1-0.6,1.9c0,0.8,0.2,1.4,0.6,1.8c0.4,0.4,0.9,0.7,1.5,0.7c0.6,0,1.1-0.2,1.5-0.6
		c0.3-0.4,0.5-1,0.5-1.8c0-0.8-0.2-1.4-0.5-1.8C119.2,19.8,118.7,19.6,118.1,19.6z"/>
	<path class="st1" d="M127.3,16.3c-0.2-0.1-0.5-0.2-0.8-0.2c-0.8,0-1.2,0.5-1.2,1.4v1h1.7v1.3h-1.7v6h-1.6v-6h-1.2v-1.3h1.2v-1.2
		c0-0.8,0.3-1.4,0.8-1.8s1.1-0.7,1.9-0.7c0.4,0,0.7,0,1,0.1V16.3z"/>
	<path class="st1" d="M132.3,25.6c-0.3,0.2-0.7,0.2-1.3,0.2c-1.4,0-2.1-0.7-2.1-2v-4.1h-1.2v-1.3h1.2v-1.7l1.6-0.5v2.1h1.7v1.3h-1.7
		v3.6c0,0.4,0.1,0.7,0.2,0.9c0.2,0.2,0.4,0.3,0.8,0.3c0.3,0,0.5-0.1,0.7-0.2V25.6z"/>
	<path class="st1" d="M143.3,25.7h-1.6v-1.1h0c-0.5,0.9-1.2,1.3-2.2,1.3c-0.7,0-1.3-0.2-1.7-0.6c-0.4-0.4-0.6-0.9-0.6-1.5
		c0-1.4,0.8-2.2,2.4-2.4l2.2-0.3c0-1-0.5-1.6-1.5-1.6c-0.9,0-1.6,0.3-2.3,0.9V19c0.8-0.5,1.6-0.7,2.6-0.7c1.8,0,2.7,0.9,2.7,2.7
		V25.7z M141.7,22.2l-1.5,0.2c-0.5,0.1-0.8,0.2-1.1,0.3s-0.4,0.5-0.4,0.9c0,0.3,0.1,0.6,0.3,0.8s0.5,0.3,0.9,0.3
		c0.5,0,0.9-0.2,1.2-0.5c0.3-0.4,0.5-0.8,0.5-1.3V22.2z"/>
	<path class="st1" d="M151.7,25.7h-1.6v-4.1c0-1.4-0.5-2-1.4-2c-0.5,0-0.9,0.2-1.2,0.6c-0.3,0.4-0.5,0.8-0.5,1.4v4.1h-1.7v-7.3h1.7
		v1.2h0c0.5-0.9,1.3-1.4,2.4-1.4c0.8,0,1.4,0.3,1.8,0.8c0.4,0.5,0.6,1.3,0.6,2.2V25.7z"/>
	<path class="st1" d="M164.6,25.7h-1.6v-4c0-0.8-0.1-1.3-0.3-1.6s-0.6-0.5-1.1-0.5c-0.4,0-0.8,0.2-1.1,0.6s-0.4,0.9-0.4,1.5v3.9
		h-1.7v-4.1c0-1.4-0.5-2-1.4-2c-0.4,0-0.8,0.2-1.1,0.6c-0.3,0.4-0.4,0.9-0.4,1.6v3.9h-1.6v-7.3h1.6v1.1h0c0.5-0.9,1.3-1.3,2.3-1.3
		c0.5,0,0.9,0.1,1.3,0.4c0.4,0.3,0.6,0.6,0.8,1.1c0.5-1,1.3-1.5,2.4-1.5c1.6,0,2.4,1,2.4,3V25.7z"/>
	<path class="st1" d="M172.7,22.5h-4.9c0,0.7,0.2,1.2,0.6,1.6c0.4,0.4,0.9,0.5,1.6,0.5c0.8,0,1.5-0.2,2.1-0.7v1.3
		c-0.7,0.4-1.5,0.6-2.6,0.6c-1.1,0-1.9-0.3-2.5-1c-0.6-0.7-0.9-1.6-0.9-2.8c0-1.1,0.3-2,1-2.8s1.5-1.1,2.5-1.1c1,0,1.8,0.3,2.3,1
		s0.8,1.5,0.8,2.7V22.5z M171.1,21.4c0-0.6-0.1-1-0.4-1.4c-0.3-0.3-0.7-0.5-1.1-0.5c-0.5,0-0.9,0.2-1.2,0.5s-0.5,0.8-0.6,1.4H171.1z
		"/>
	<path class="st1" d="M176,25.7h-1.6V15h1.6V25.7z"/>
	<path class="st1" d="M184.7,25.7H183v-1.2h0c-0.5,0.9-1.3,1.4-2.4,1.4c-0.9,0-1.6-0.3-2.1-1c-0.5-0.6-0.8-1.5-0.8-2.7
		c0-1.2,0.3-2.2,0.9-2.9c0.6-0.7,1.4-1.1,2.4-1.1c1,0,1.7,0.4,2.1,1.2h0V15h1.6V25.7z M183.1,22.4v-0.9c0-0.5-0.2-1-0.5-1.3
		c-0.3-0.4-0.8-0.5-1.3-0.5c-0.6,0-1.1,0.2-1.4,0.7s-0.5,1.1-0.5,1.9c0,0.7,0.2,1.3,0.5,1.7c0.3,0.4,0.8,0.6,1.4,0.6
		c0.6,0,1-0.2,1.4-0.6C182.9,23.6,183.1,23,183.1,22.4z"/>
	<path class="st1" d="M193,22.5H188c0,0.7,0.2,1.2,0.6,1.6c0.4,0.4,0.9,0.5,1.6,0.5c0.8,0,1.5-0.2,2.1-0.7v1.3
		c-0.7,0.4-1.5,0.6-2.6,0.6c-1.1,0-1.9-0.3-2.5-1c-0.6-0.7-0.9-1.6-0.9-2.8c0-1.1,0.3-2,1-2.8s1.5-1.1,2.5-1.1c1,0,1.8,0.3,2.3,1
		s0.8,1.5,0.8,2.7V22.5z M191.4,21.4c0-0.6-0.1-1-0.4-1.4s-0.7-0.5-1.1-0.5c-0.5,0-0.9,0.2-1.2,0.5s-0.5,0.8-0.6,1.4H191.4z"/>
	<path class="st1" d="M201,25.7h-1.6v-4.1c0-1.4-0.5-2-1.4-2c-0.5,0-0.9,0.2-1.2,0.6c-0.3,0.4-0.5,0.8-0.5,1.4v4.1h-1.7v-7.3h1.7
		v1.2h0c0.5-0.9,1.3-1.4,2.4-1.4c0.8,0,1.4,0.3,1.8,0.8c0.4,0.5,0.6,1.3,0.6,2.2V25.7z"/>
</g>
</svg>
