<?xml version="1.0" encoding="utf-8"?>
<!-- Generator: Adobe Illustrator 23.0.3, SVG Export Plug-In . SVG Version: 6.00 Build 0)  -->
<svg version="1.1" xmlns="http://www.w3.org/2000/svg" xmlns:xlink="http://www.w3.org/1999/xlink" x="0px" y="0px"
	 viewBox="0 0 253.9 263.9" style="enable-background:new 0 0 253.9 263.9;" xml:space="preserve">
<style type="text/css">
	.st0{display:none;}
	.st1{display:inline;}
	.st2{fill:#FFFFFF;}
	.st3{fill:#0072C6;}
	.st4{clip-path:url(#SVGID_2_);}
	.st5{clip-path:url(#SVGID_4_);}
	.st6{fill:#E5E5E5;}
	.st7{clip-path:url(#SVGID_6_);fill:#3C3C41;}
	.st8{fill:#EBEBEB;}
	.st9{fill:#3C3C41;}
	.st10{fill:#75757A;}
	.st11{opacity:0.2;fill:#FFFFFF;enable-background:new    ;}
	.st12{fill:none;stroke:#000000;stroke-miterlimit:10;}
	.st13{fill:#EBEBEB;stroke:#000000;stroke-width:0.75;stroke-miterlimit:10;}
	.st14{fill:none;}
	.st15{fill:#1E1E1E;}
	.st16{clip-path:url(#SVGID_8_);}
	.st17{clip-path:url(#SVGID_10_);}
	.st18{clip-path:url(#SVGID_12_);fill:#3C3C41;}
	.st19{fill:#1E1E1E;stroke:#1E1E1E;stroke-width:6.000000e-02;stroke-miterlimit:10;}
	.st20{fill:#FFFFFF;stroke:#FFFFFF;stroke-width:5.000000e-02;stroke-miterlimit:10;}
</style>
<g id="src" class="st0">
	<g id="Shapes" class="st1">
		<rect x="8.8" class="st2" width="245" height="263.9"/>
		<rect x="79.1" class="st3" width="104.7" height="90"/>
		<g>
			<path d="M62.3,100.3h-0.5V83.2c0-0.9,0.7-1.6,1.6-1.6h9.7v0.5h-9.7c-0.6,0-1.1,0.5-1.1,1.1l0,0L62.3,100.3L62.3,100.3z"/>
			<path d="M90.3,100.3h-0.5V83.2c0-0.6-0.5-1.1-1.1-1.1H73.1v-0.5h15.6c0.9,0,1.6,0.7,1.6,1.6L90.3,100.3z"/>
			<polygon points="72.2,98.8 64,98.8 64,83.7 71.4,83.7 71.4,84.3 64.5,84.3 64.5,98.2 72.2,98.2 			"/>
			<polygon points="88,98.8 82.8,98.8 82.8,98.2 87.5,98.2 87.5,84.3 80.8,84.3 80.8,83.7 88,83.7 			"/>
			<path d="M94.4,103.2h-8v-0.5h8c0.6,0,1.1-0.5,1.1-1.1v-0.9h-9.1v-0.5H96v1.4C96,102.4,95.3,103.2,94.4,103.2z"/>
			<path d="M72,103.2H57.6c-0.9,0-1.6-0.7-1.6-1.6v-1.4h16.2v0.5H56.5v0.9c0,0.6,0.5,1.1,1.1,1.1H72L72,103.2z"/>
			<rect x="81.1" y="83.7" width="5.5" height="0.5"/>
			<rect x="65.3" y="83.7" width="15.5" height="0.5"/>
			<path d="M79.6,102.6H79v-5.1c0-0.8-0.7-1.5-1.5-1.5S76,96.7,76,97.5l0,0v5.1h-0.5v-5.1c0-1.1,0.9-2,2-2c1.1,0,2,0.9,2,2V102.6z"
				/>
			<path d="M83.1,102.6h-0.5v-3.7c0-0.8-0.7-1.5-1.5-1.5s-1.5,0.7-1.5,1.5l0,0v3.7H79v-3.7c0-1.1,0.9-2,2-2c1.1,0,2,0.9,2,2V102.6z"
				/>
			<path d="M86.6,112.8h-0.5v-12.5c0-0.8-0.7-1.5-1.5-1.5s-1.5,0.7-1.5,1.5l0,0v2.2h-0.5v-2.2c0-1.1,0.9-2,2-2s2,0.9,2,2V112.8z"/>
			<path d="M86.6,114.3l-14.5,0l-0.2-0.1l0,0l-6.4-6.4c-1-1-1-2.7,0-3.8c1-1,2.7-1,3.8,0l2.8,2.7V91c0-1.1,0.9-2,2-2
				c1.1,0,2,0.9,2,2v9.7h-0.5V91c0-0.8-0.7-1.5-1.5-1.5s-1.5,0.7-1.5,1.5l0,0v16.9l-3.7-3.5c-0.8-0.9-2.1-0.9-3-0.1s-0.9,2.1-0.1,3
				c0,0,0.1,0.1,0.1,0.1l6.4,6.4l0.1,0h13.8v-7.1h0.5L86.6,114.3z"/>
		</g>
		<g>
			<g>
				<g>
					<g>
						<defs>
							<rect id="SVGID_1_" x="62" y="176.5" width="54" height="54"/>
						</defs>
						<clipPath id="SVGID_2_">
							<use xlink:href="#SVGID_1_"  style="overflow:visible;"/>
						</clipPath>
						<g class="st4">
							<path class="st2" d="M111.9,182.4H66.1c-1.8,0-3.3,1.4-3.3,3.2v28.2c0,1.8,1.5,3.2,3.3,3.2h45.8c1.8,0,3.2-1.4,3.3-3.2v-28.2
								C115.1,183.9,113.7,182.4,111.9,182.4z"/>
						</g>
					</g>
					<g>
						<defs>
							<rect id="SVGID_3_" x="62" y="176.5" width="54" height="54"/>
						</defs>
						<clipPath id="SVGID_4_">
							<use xlink:href="#SVGID_3_"  style="overflow:visible;"/>
						</clipPath>
						<g class="st5">
							<path class="st6" d="M115.2,185.4v8.9H62.8v-8.9c0-1.6,1.3-2.9,2.9-2.9h46.5C113.9,182.5,115.2,183.8,115.2,185.4z"/>
						</g>
					</g>
					<g>
						<defs>
							<rect id="SVGID_5_" x="62" y="176.5" width="54" height="54"/>
						</defs>
						<clipPath id="SVGID_6_">
							<use xlink:href="#SVGID_5_"  style="overflow:visible;"/>
						</clipPath>
						<path class="st7" d="M111.9,181.6L111.9,181.6H66.1c0,0,0,0,0,0c-2.2,0-4.1,1.8-4.1,4.1v28.2c0,2.2,1.9,4.1,4.1,4.1
							c0,0,0,0,0,0h22l-0.3,5.1H78l-2.5,1.7h27l-2.5-1.7h-9.8l-0.3-5.1h22h0c2.2,0,4.1-1.8,4.1-4.1v-28.2
							C116,183.4,114.1,181.6,111.9,181.6z M114.3,213.8c0,1.3-1.1,2.4-2.4,2.4c0,0,0,0,0,0H66.1h0c-1.3,0-2.4-1.1-2.4-2.4v-28.1
							c0-1.3,1.1-2.4,2.4-2.4h0h45.8c0,0,0,0,0,0c1.3,0,2.4,1.1,2.4,2.4L114.3,213.8L114.3,213.8z"/>
					</g>
				</g>
			</g>
		</g>
		<g>
			<ellipse class="st8" cx="62.2" cy="217.9" rx="18.5" ry="18.5"/>
			<path class="st9" d="M62.2,237.3c-10.8,0-19.5-8.7-19.5-19.5s8.8-19.5,19.5-19.5s19.5,8.7,19.5,19.5S72.9,237.3,62.2,237.3z
				 M62.2,200.4c-9.6,0-17.5,7.8-17.5,17.5s7.8,17.5,17.5,17.5s17.5-7.8,17.5-17.5C79.7,208.2,71.8,200.4,62.2,200.4z"/>
		</g>
		<g>
			<path class="st10" d="M67.2,208.9c0,2.8-2.2,5-5,5s-5-2.2-5-5c0.1-2.8,2.3-5,5-5C65,203.9,67.2,206.1,67.2,208.9"/>
			<polygon class="st10" points="65.8,215.7 62.2,220.9 58.5,215.7 53.2,215.7 53.2,228.4 71.2,228.4 71.2,215.7 			"/>
			<path class="st11" d="M57.2,208.9c0,2.7,2.2,5,4.9,5l1.3-9.9c-0.4-0.2-0.8-0.2-1.2-0.2C59.4,203.9,57.2,206.1,57.2,208.9"/>
			<polygon class="st11" points="58.5,215.7 53.2,215.7 53.2,228.4 60.3,228.4 61.4,219.7 			"/>
		</g>
		<g>
			<g>
				<line class="st12" x1="76" y1="181.5" x2="76" y2="119.9"/>
				<g>
					<polygon points="79.7,121 76,114.5 72.3,121 					"/>
				</g>
			</g>
		</g>
		<g>
			<g>
				<line class="st12" x1="108.3" y1="176.2" x2="108.3" y2="90"/>
				<g>
					<polygon points="112.1,175.1 108.3,181.5 104.6,175.1 					"/>
				</g>
			</g>
		</g>
		<g>
			<rect x="193.5" y="190.4" class="st2" width="58" height="31.3"/>
			<g>
				<path class="st3" d="M253.9,183.3c0-0.6-0.5-1.1-1.1-1.1h-60.6c-0.6,0-1.1,0.5-1.1,1.1v37.9c0,0.6,0.5,1.1,1.1,1.1h60.6
					c0.6,0,1.1-0.5,1.1-1.1V183.3z M199.8,189.3h-3.1v-3.1h3.1V189.3z M206,189.3h-3.1v-3.1h3.1V189.3z M212.3,189.3h-3.1v-3.1h3.1
					V189.3z M193.5,191.6h58v28.2h-58L193.5,191.6L193.5,191.6z"/>
			</g>
		</g>
		<path d="M198.5,208.7c-2.9-3.9-7.5-5.9-11.9-5.9c-3.2,0-6.4,1-9.1,3.1c-6.6,5.1-7.9,14.4-2.8,21c2.9,3.9,7.4,5.9,11.9,5.9
			c3.2,0,6.4-1,9.1-3.1C202.3,224.7,203.6,215.3,198.5,208.7z M199.2,221.2c-0.5-0.4-1.3-1-2.3-1.8c0.3-0.9,0.3-1.9-0.3-2.7
			c-0.9-1.1-2.4-1.4-3.7-0.6c-1.3-1.2-2.8-2.5-4.3-4.1c4.5-2.5,7.9-2.2,8.2-2.2c0.1,0.1,0.1,0.1,0.1,0.2
			C199.5,213.3,200.2,217.5,199.2,221.2z M191,224.8c-0.1-0.4-0.2-0.7-0.5-1c-0.8-1.1-2.3-1.3-3.4-0.6c-1.1-0.6-2.3-1.4-3.5-2.3
			c-0.1-0.1-0.2-0.2-0.3-0.3c0.5-1.3,0.3-2.7-0.6-3.9c0,0-0.1-0.1-0.1-0.1c0.3-0.3,0.5-0.6,0.8-0.8c1.2-1.1,2.3-2.1,3.4-2.8l0,0
			c0,0,0,0,0,0c0,0,0,0-0.1,0c1.6,1.5,3.4,2.9,5,4.2c-0.4,0.9-0.4,2,0.2,2.9c1,1.3,2.7,1.4,4,0.6c0.1-0.1,0.1-0.1,0.2-0.2
			c1.2,0.8,2.1,1.5,2.6,1.8c-0.4,1-0.9,2-1.5,2.9C196.5,225.4,194.2,225.7,191,224.8z M195,207.9c-2-0.3-5.2-0.2-8.7,1.6
			c-1.2-1.3-2.4-2.6-3.7-4.1c1.3-0.4,2.6-0.6,4-0.6C189.6,204.8,192.6,205.9,195,207.9z M178.6,207.5c0.7-0.5,1.4-1,2.2-1.4
			c0.9,1.5,2.2,3,3.5,4.4c-1.2,0.8-2.4,1.8-3.6,3.1c-0.4,0.5-0.8,0.9-1.2,1.4c-0.6,0-1.3,0.1-1.9,0.5c-1.3-2.4-1.5-4.5-1.4-5.8
			C177,209,177.7,208.2,178.6,207.5z M174.8,212.3c0,1.4,0.2,3.1,1.3,4.9c-0.7,1.3-0.6,3,0.4,4.3l0,0c-0.3,1.3-0.5,2.6-0.6,3.7
			C173.1,221.3,172.9,216.4,174.8,212.3z M194.5,228.2c-2.4,1.8-5.2,2.7-7.9,2.7c-3,0-6-1-8.4-3.1c0-1.3,0.1-3,0.7-4.9
			c1,0.2,2,0,2.9-0.6c0.1,0.1,0.2,0.2,0.3,0.3c1.3,1,2.5,1.8,3.7,2.4c-0.1,0.7,0.1,1.4,0.5,1.9c0.9,1.1,2.6,1.4,3.7,0.5
			c0.3-0.2,0.5-0.4,0.6-0.7c2,0.4,3.7,0.5,5,0.5C195.3,227.6,194.9,227.9,194.5,228.2z"/>
		<g>
			<g>
				<line class="st12" x1="116" y1="191.5" x2="185.6" y2="191.5"/>
				<g>
					<polygon points="184.5,195.3 191,191.5 184.5,187.8 					"/>
				</g>
			</g>
		</g>
		<polygon class="st13" points="108.1,146.3 99.5,152.5 102.8,162.5 113.4,162.5 116.6,152.5 		"/>
		<polygon class="st13" points="141.2,181.6 132.6,187.9 135.9,197.9 146.4,197.9 149.7,187.9 		"/>
	</g>
	<g id="Text" class="st1">
		<g>
			<rect x="92" y="24.4" class="st14" width="78.5" height="45.6"/>
			<path class="st2" d="M114.2,33.3h-1.9v-5c0-0.5,0-1.1,0.1-1.8h-0.1c-0.1,0.5-0.2,0.9-0.3,1.1l-2,5.7h-1.6l-2-5.6
				c-0.1-0.1-0.1-0.5-0.3-1.2h-0.1c0.1,0.8,0.1,1.5,0.1,2.2v4.7h-1.7v-8.4h2.8l1.7,5c0.1,0.4,0.2,0.8,0.3,1.2h0
				c0.1-0.5,0.2-0.9,0.3-1.2l1.7-5h2.7L114.2,33.3L114.2,33.3z"/>
			<path class="st2" d="M116.8,26.3c-0.3,0-0.6-0.1-0.8-0.3s-0.3-0.4-0.3-0.7c0-0.3,0.1-0.5,0.3-0.7s0.5-0.3,0.8-0.3
				c0.3,0,0.6,0.1,0.8,0.3s0.3,0.4,0.3,0.7s-0.1,0.5-0.3,0.7S117.2,26.3,116.8,26.3z M117.8,33.3h-1.8v-6h1.8V33.3z"/>
			<path class="st2" d="M123.8,33.1c-0.4,0.2-1,0.4-1.8,0.4c-0.9,0-1.7-0.3-2.2-0.8s-0.9-1.3-0.9-2.2c0-1,0.3-1.8,0.9-2.4
				s1.4-0.9,2.4-0.9c0.7,0,1.2,0.1,1.5,0.3V29c-0.4-0.3-0.8-0.4-1.3-0.4c-0.5,0-0.9,0.2-1.3,0.5s-0.5,0.7-0.5,1.3
				c0,0.5,0.2,1,0.4,1.3s0.7,0.5,1.2,0.5c0.5,0,0.9-0.1,1.3-0.4C123.8,31.6,123.8,33.1,123.8,33.1z"/>
			<path class="st2" d="M129.1,28.9c-0.2-0.1-0.5-0.2-0.8-0.2c-0.4,0-0.7,0.1-0.9,0.4s-0.3,0.7-0.3,1.2v2.9h-1.8v-6h1.8v1.1h0
				c0.3-0.8,0.8-1.2,1.6-1.2c0.2,0,0.4,0,0.5,0.1V28.9z"/>
			<path class="st2" d="M132.9,33.4c-1,0-1.8-0.3-2.4-0.8s-0.9-1.3-0.9-2.3c0-1,0.3-1.8,0.9-2.3s1.4-0.8,2.4-0.8
				c1,0,1.8,0.3,2.3,0.8s0.9,1.3,0.9,2.2c0,1-0.3,1.8-0.9,2.4S133.9,33.4,132.9,33.4z M132.9,28.5c-0.4,0-0.8,0.1-1,0.5
				s-0.4,0.7-0.4,1.3c0,1.1,0.5,1.7,1.4,1.7c0.9,0,1.3-0.6,1.3-1.8C134.3,29.1,133.8,28.5,132.9,28.5z"/>
			<path class="st2" d="M137,33.1v-1.5c0.3,0.2,0.6,0.3,0.9,0.4s0.6,0.1,0.9,0.1c0.3,0,0.6,0,0.8-0.1s0.3-0.2,0.3-0.4
				c0-0.1,0-0.2-0.1-0.3s-0.2-0.1-0.3-0.2s-0.3-0.1-0.4-0.2s-0.3-0.1-0.5-0.2c-0.2-0.1-0.4-0.2-0.6-0.3s-0.3-0.2-0.5-0.4
				s-0.2-0.3-0.3-0.5S137,29.3,137,29c0-0.3,0.1-0.6,0.2-0.9s0.3-0.4,0.6-0.6s0.5-0.3,0.8-0.3s0.6-0.1,1-0.1c0.3,0,0.5,0,0.8,0.1
				s0.5,0.1,0.8,0.2v1.4c-0.2-0.1-0.5-0.2-0.8-0.3s-0.5-0.1-0.8-0.1c-0.1,0-0.2,0-0.3,0s-0.2,0-0.3,0.1s-0.1,0.1-0.2,0.2
				s-0.1,0.1-0.1,0.2c0,0.1,0,0.2,0.1,0.3s0.2,0.1,0.3,0.2s0.2,0.1,0.4,0.1s0.3,0.1,0.4,0.1c0.3,0.1,0.5,0.2,0.7,0.3
				s0.4,0.2,0.5,0.4s0.3,0.3,0.3,0.5s0.1,0.4,0.1,0.7c0,0.4-0.1,0.7-0.2,0.9s-0.4,0.5-0.6,0.6s-0.6,0.3-0.9,0.3s-0.7,0.1-1,0.1
				C138.2,33.4,137.6,33.3,137,33.1z"/>
			<path class="st2" d="M145.6,33.4c-1,0-1.8-0.3-2.4-0.8s-0.9-1.3-0.9-2.3c0-1,0.3-1.8,0.9-2.3s1.4-0.8,2.4-0.8
				c1,0,1.8,0.3,2.3,0.8s0.9,1.3,0.9,2.2c0,1-0.3,1.8-0.9,2.4S146.6,33.4,145.6,33.4z M145.6,28.5c-0.4,0-0.8,0.1-1,0.5
				s-0.4,0.7-0.4,1.3c0,1.1,0.5,1.7,1.4,1.7c0.9,0,1.3-0.6,1.3-1.8C146.9,29.1,146.5,28.5,145.6,28.5z"/>
			<path class="st2" d="M153.9,25.8c-0.2-0.1-0.5-0.1-0.7-0.1c-0.6,0-0.9,0.3-0.9,1v0.6h1.4v1.4h-1.4v4.6h-1.9v-4.6h-1v-1.4h1v-0.7
				c0-0.7,0.2-1.2,0.7-1.6s1.1-0.6,1.8-0.6c0.4,0,0.7,0,0.9,0.1V25.8z"/>
			<path class="st2" d="M158.5,33.2c-0.3,0.1-0.7,0.2-1.2,0.2c-1.3,0-2-0.7-2-2v-2.8h-1v-1.4h1V26l1.9-0.5v1.8h1.4v1.4h-1.4v2.4
				c0,0.6,0.3,0.9,0.7,0.9c0.2,0,0.4-0.1,0.6-0.2L158.5,33.2L158.5,33.2z"/>
			<path class="st2" d="M110.9,40.7c-0.3,0-0.6-0.1-0.8-0.3s-0.3-0.4-0.3-0.7c0-0.3,0.1-0.5,0.3-0.7s0.5-0.3,0.8-0.3
				c0.3,0,0.6,0.1,0.8,0.3s0.3,0.4,0.3,0.7s-0.1,0.5-0.3,0.7S111.2,40.7,110.9,40.7z M111.8,47.7H110v-6h1.8V47.7z"/>
			<path class="st2" d="M119.2,47.7h-1.8v-0.8h0c-0.4,0.7-1,1-1.9,1c-0.8,0-1.3-0.3-1.8-0.8s-0.7-1.3-0.7-2.2c0-1,0.3-1.8,0.8-2.4
				s1.2-0.9,2-0.9c0.8,0,1.3,0.3,1.6,0.8h0v-3.6h1.8V47.7z M117.4,44.8v-0.5c0-0.4-0.1-0.7-0.3-1s-0.5-0.4-0.9-0.4
				c-0.4,0-0.7,0.2-1,0.5s-0.3,0.8-0.3,1.3c0,0.5,0.1,0.9,0.3,1.2s0.5,0.4,0.9,0.4c0.4,0,0.7-0.2,0.9-0.5S117.4,45.3,117.4,44.8z"/>
			<path class="st2" d="M126.2,45.2h-3.9c0.1,0.9,0.6,1.3,1.7,1.3c0.7,0,1.2-0.2,1.7-0.5v1.3c-0.6,0.3-1.3,0.5-2.2,0.5
				c-1,0-1.7-0.3-2.3-0.8s-0.8-1.3-0.8-2.3c0-1,0.3-1.8,0.9-2.4s1.3-0.9,2.1-0.9c0.9,0,1.6,0.3,2,0.8s0.7,1.2,0.7,2.1L126.2,45.2
				L126.2,45.2z M124.5,44.1c0-0.9-0.3-1.3-1-1.3c-0.3,0-0.6,0.1-0.8,0.4s-0.3,0.5-0.4,0.9L124.5,44.1z"/>
			<path class="st2" d="M133.1,47.7h-1.9v-3.3c0-0.9-0.3-1.4-1-1.4c-0.3,0-0.6,0.1-0.8,0.4s-0.3,0.6-0.3,0.9v3.4h-1.8v-6h1.8v1h0
				c0.4-0.7,1.1-1.1,1.9-1.1c1.3,0,2,0.8,2,2.5L133.1,47.7L133.1,47.7z"/>
			<path class="st2" d="M138.2,47.6c-0.3,0.1-0.7,0.2-1.2,0.2c-1.3,0-2-0.7-2-2V43h-1v-1.4h1v-1.3l1.9-0.5v1.8h1.4V43h-1.4v2.4
				c0,0.6,0.3,0.9,0.7,0.9c0.2,0,0.4-0.1,0.6-0.2L138.2,47.6L138.2,47.6z"/>
			<path class="st2" d="M140.2,40.7c-0.3,0-0.6-0.1-0.8-0.3s-0.3-0.4-0.3-0.7c0-0.3,0.1-0.5,0.3-0.7s0.5-0.3,0.8-0.3
				c0.3,0,0.6,0.1,0.8,0.3s0.3,0.4,0.3,0.7s-0.1,0.5-0.3,0.7S140.5,40.7,140.2,40.7z M141.1,47.7h-1.9v-6h1.9V47.7z"/>
			<path class="st2" d="M146.2,47.6c-0.3,0.1-0.7,0.2-1.2,0.2c-1.3,0-2-0.7-2-2V43h-1v-1.4h1v-1.3l1.9-0.5v1.8h1.4V43h-1.4v2.4
				c0,0.6,0.3,0.9,0.7,0.9c0.2,0,0.4-0.1,0.6-0.2L146.2,47.6L146.2,47.6z"/>
			<path class="st2" d="M153.3,41.7l-2.4,6.5c-0.6,1.6-1.5,2.3-2.6,2.3c-0.4,0-0.8,0-1.1-0.2v-1.5c0.3,0.1,0.5,0.2,0.8,0.2
				c0.5,0,0.8-0.2,1-0.7l0.3-0.7l-2.4-6h2.1l1.1,3.7c0.1,0.2,0.1,0.5,0.2,0.8h0c0-0.2,0.1-0.5,0.2-0.8l1.1-3.7L153.3,41.7
				L153.3,41.7z"/>
			<path class="st2" d="M108.9,61.4L108.9,61.4l0,3.5h-1.8v-8.8h1.8V57h0c0.5-0.7,1.1-1,1.9-1c0.8,0,1.4,0.3,1.8,0.8
				s0.6,1.3,0.6,2.2c0,1-0.3,1.8-0.7,2.4s-1.2,0.9-2,0.9C109.9,62.2,109.3,61.9,108.9,61.4z M108.9,58.9v0.5c0,0.4,0.1,0.8,0.3,1
				s0.5,0.4,0.9,0.4c0.4,0,0.8-0.2,1-0.5s0.3-0.8,0.3-1.4c0-1-0.4-1.6-1.2-1.6c-0.4,0-0.7,0.1-0.9,0.4S108.9,58.4,108.9,58.9z"/>
			<path class="st2" d="M116.4,62.1h-1.8v-8.9h1.8V62.1z"/>
			<path class="st2" d="M123,62.1h-1.8v-0.9h0c-0.4,0.7-1,1-1.8,1c-0.6,0-1-0.2-1.4-0.5s-0.5-0.8-0.5-1.3c0-1.2,0.7-1.8,2.1-2
				l1.6-0.2c0-0.7-0.4-1-1.1-1s-1.4,0.2-2,0.6v-1.4c0.3-0.1,0.6-0.3,1.1-0.3s0.8-0.2,1.2-0.2c1.7,0,2.6,0.8,2.6,2.6L123,62.1
				L123,62.1z M121.3,59.6v-0.4l-1.1,0.1c-0.6,0.1-0.9,0.3-0.9,0.8c0,0.2,0.1,0.4,0.2,0.5s0.3,0.2,0.6,0.2c0.3,0,0.6-0.1,0.8-0.4
				S121.3,60,121.3,59.6z"/>
			<path class="st2" d="M128,62c-0.3,0.1-0.7,0.2-1.2,0.2c-1.3,0-2-0.7-2-2v-2.8h-1v-1.4h1v-1.3l1.8-0.5v1.8h1.3v1.4h-1.3v2.4
				c0,0.6,0.3,0.9,0.7,0.9c0.2,0,0.4-0.1,0.6-0.2L128,62L128,62z"/>
			<path class="st2" d="M133.1,54.6c-0.2-0.1-0.5-0.1-0.7-0.1c-0.6,0-0.9,0.3-0.9,1v0.6h1.4v1.4h-1.4v4.6h-1.9v-4.6h-1v-1.4h1v-0.7
				c0-0.7,0.2-1.2,0.7-1.7s1.1-0.6,1.8-0.6c0.4,0,0.7,0,0.9,0.1V54.6z"/>
			<path class="st2" d="M136.7,62.2c-1,0-1.8-0.3-2.4-0.8s-0.9-1.3-0.9-2.3c0-1,0.3-1.8,0.9-2.3s1.4-0.8,2.4-0.8
				c1,0,1.8,0.3,2.3,0.8s0.9,1.3,0.9,2.2c0,1-0.3,1.8-0.9,2.4S137.7,62.2,136.7,62.2z M136.7,57.3c-0.4,0-0.8,0.2-1,0.5
				s-0.4,0.7-0.4,1.3c0,1.2,0.5,1.7,1.4,1.7c0.9,0,1.3-0.6,1.3-1.8C138.1,57.9,137.6,57.3,136.7,57.3z"/>
			<path class="st2" d="M145.1,57.7c-0.2-0.1-0.5-0.2-0.8-0.2c-0.4,0-0.7,0.2-0.9,0.4s-0.3,0.7-0.3,1.2v2.9h-1.9v-6h1.9v1.1h0
				c0.3-0.8,0.8-1.2,1.6-1.2c0.2,0,0.4,0,0.5,0.1L145.1,57.7L145.1,57.7z"/>
			<path class="st2" d="M155.4,62.1h-1.9v-3.4c0-0.9-0.3-1.3-1-1.3c-0.3,0-0.6,0.1-0.7,0.4s-0.3,0.6-0.3,1v3.4h-1.9v-3.5
				c0-0.8-0.3-1.3-0.9-1.3c-0.3,0-0.6,0.1-0.8,0.4s-0.3,0.6-0.3,1v3.3h-1.9v-6h1.9V57h0c0.2-0.3,0.5-0.6,0.8-0.8s0.7-0.3,1.1-0.3
				c0.9,0,1.4,0.4,1.7,1.1c0.5-0.8,1.1-1.1,2-1.1c1.3,0,2,0.8,2,2.4L155.4,62.1L155.4,62.1z"/>
		</g>
		<g>
			<rect y="81.5" class="st14" width="50" height="27.9"/>
			<path class="st15" d="M13.4,90.1v-1.2c0.1,0.1,0.3,0.2,0.5,0.3s0.4,0.2,0.6,0.2s0.4,0.1,0.6,0.2s0.4,0.1,0.6,0.1
				c0.6,0,1.1-0.1,1.4-0.3s0.5-0.6,0.5-1c0-0.2,0-0.4-0.1-0.6s-0.2-0.3-0.4-0.5s-0.4-0.3-0.6-0.4c-0.2-0.1-0.5-0.3-0.8-0.4
				c-0.3-0.2-0.6-0.3-0.8-0.4s-0.5-0.3-0.7-0.5s-0.3-0.4-0.4-0.6s-0.2-0.5-0.2-0.8c0-0.4,0.1-0.7,0.3-1s0.4-0.5,0.7-0.7
				s0.6-0.3,0.9-0.4s0.7-0.1,1.1-0.1c0.8,0,1.4,0.1,1.8,0.3v1.1c-0.5-0.3-1.1-0.5-1.9-0.5c-0.2,0-0.4,0-0.6,0.1S15.2,83,15,83.1
				s-0.3,0.2-0.4,0.4s-0.2,0.4-0.2,0.6c0,0.2,0,0.4,0.1,0.6s0.2,0.3,0.4,0.4s0.4,0.3,0.6,0.4s0.5,0.3,0.8,0.4
				c0.3,0.2,0.6,0.3,0.9,0.5s0.5,0.3,0.7,0.5s0.4,0.4,0.5,0.7s0.2,0.5,0.2,0.8c0,0.4-0.1,0.8-0.2,1.1s-0.4,0.5-0.7,0.7
				s-0.6,0.3-1,0.4s-0.7,0.1-1.1,0.1c-0.1,0-0.3,0-0.5,0s-0.4-0.1-0.6-0.1s-0.4-0.1-0.6-0.2S13.5,90.2,13.4,90.1z"/>
			<path class="st15" d="M20.3,82.9c-0.2,0-0.3-0.1-0.4-0.2s-0.2-0.3-0.2-0.4s0.1-0.3,0.2-0.4s0.3-0.2,0.4-0.2
				c0.2,0,0.3,0.1,0.5,0.2s0.2,0.3,0.2,0.4c0,0.2-0.1,0.3-0.2,0.4S20.5,82.9,20.3,82.9z M20.8,90.4h-1v-6h1V90.4z"/>
			<path class="st15" d="M27.8,89.9c0,2.2-1,3.3-3.2,3.3c-0.7,0-1.4-0.1-2-0.4v-1c0.7,0.4,1.3,0.6,1.9,0.6c1.5,0,2.2-0.8,2.2-2.4
				v-0.7h0c-0.5,0.8-1.1,1.2-2.1,1.2c-0.8,0-1.4-0.3-1.8-0.8s-0.7-1.3-0.7-2.2c0-1,0.3-1.8,0.7-2.4s1.2-0.9,2-0.9
				c0.8,0,1.4,0.3,1.8,1h0v-0.8h1V89.9z M26.8,87.7v-0.9c0-0.5-0.2-0.9-0.5-1.2s-0.7-0.5-1.2-0.5c-0.6,0-1.1,0.2-1.4,0.7
				s-0.5,1-0.5,1.8c0,0.7,0.2,1.2,0.5,1.6s0.8,0.6,1.3,0.6c0.5,0,1-0.2,1.3-0.6S26.8,88.3,26.8,87.7z"/>
			<path class="st15" d="M34.6,90.4h-1V87c0-1.3-0.5-1.9-1.4-1.9c-0.5,0-0.9,0.2-1.2,0.5s-0.5,0.8-0.5,1.4v3.4h-1v-6h1v1h0
				c0.5-0.8,1.1-1.1,2-1.1c0.7,0,1.2,0.2,1.5,0.6s0.5,1,0.5,1.8L34.6,90.4L34.6,90.4z"/>
			<path class="st15" d="M39.4,87.5h-3.2v-0.8h3.2V87.5z"/>
			<path class="st15" d="M42.2,90.4h-1V82h1V90.4z"/>
			<path class="st15" d="M49.2,90.4h-1V87c0-1.3-0.5-1.9-1.4-1.9c-0.5,0-0.9,0.2-1.2,0.5s-0.5,0.8-0.5,1.4v3.4h-1v-6h1v1h0
				c0.5-0.8,1.1-1.1,2-1.1c0.7,0,1.2,0.2,1.5,0.6s0.5,1,0.5,1.8L49.2,90.4L49.2,90.4z"/>
			<path class="st15" d="M26.2,101.7v3.2h-1v-8.4h2.3c0.9,0,1.6,0.2,2.1,0.7s0.7,1.1,0.7,1.8s-0.3,1.4-0.8,2s-1.3,0.8-2.2,0.8
				L26.2,101.7L26.2,101.7z M26.2,97.3v3.4h1c0.7,0,1.2-0.2,1.6-0.5s0.5-0.8,0.5-1.3c0-1.1-0.7-1.7-2-1.7
				C27.4,97.3,26.2,97.3,26.2,97.3z"/>
			<path class="st15" d="M35.9,104.8h-1v-0.9h0c-0.4,0.7-1,1.1-1.8,1.1c-0.6,0-1.1-0.2-1.4-0.5s-0.5-0.7-0.5-1.3c0-1.1,0.7-1.8,2-2
				l1.8-0.3c0-1-0.4-1.5-1.2-1.5c-0.7,0-1.4,0.3-2,0.7v-1c0.6-0.4,1.3-0.6,2-0.6c1.4,0,2.1,0.8,2.1,2.2V104.8z M34.9,101.8l-1.5,0.2
				c-0.5,0.1-0.8,0.2-1,0.3s-0.3,0.4-0.3,0.8c0,0.3,0.1,0.5,0.3,0.7s0.5,0.3,0.8,0.3c0.5,0,0.9-0.2,1.2-0.5s0.5-0.8,0.5-1.3
				L34.9,101.8L34.9,101.8z"/>
			<path class="st15" d="M42.8,104.3c0,2.2-1,3.3-3.2,3.3c-0.7,0-1.4-0.1-2-0.4v-1c0.7,0.4,1.3,0.6,1.9,0.6c1.5,0,2.2-0.8,2.2-2.4
				v-0.7h0c-0.5,0.8-1.1,1.2-2.1,1.2c-0.8,0-1.3-0.3-1.8-0.8s-0.7-1.3-0.7-2.2c0-1,0.3-1.8,0.7-2.4s1.2-0.9,2-0.9
				c0.8,0,1.4,0.3,1.8,1h0v-0.8h1L42.8,104.3z M41.8,102.1v-0.9c0-0.5-0.2-0.9-0.5-1.2s-0.7-0.5-1.2-0.5c-0.6,0-1.1,0.2-1.4,0.7
				s-0.5,1-0.5,1.8c0,0.7,0.2,1.2,0.5,1.6s0.8,0.6,1.3,0.6c0.5,0,1-0.2,1.3-0.6S41.8,102.7,41.8,102.1z"/>
			<path class="st15" d="M49.5,102.1h-4.2c0,0.7,0.2,1.2,0.5,1.6s0.8,0.5,1.4,0.5c0.7,0,1.3-0.2,1.9-0.7v0.9
				c-0.5,0.4-1.2,0.6-2.1,0.6c-0.8,0-1.5-0.3-2-0.8s-0.7-1.3-0.7-2.3c0-0.9,0.3-1.7,0.8-2.3s1.2-0.9,2-0.9s1.4,0.3,1.8,0.8
				s0.6,1.2,0.6,2.1L49.5,102.1L49.5,102.1z M48.5,101.3c0-0.6-0.1-1-0.4-1.3s-0.6-0.5-1.1-0.5c-0.5,0-0.8,0.2-1.2,0.5
				s-0.5,0.8-0.6,1.3L48.5,101.3L48.5,101.3z"/>
		</g>
		<g>
			<path class="st15" d="M80.6,241.1c0,2.4-1.1,3.5-3.2,3.5c-2,0-3.1-1.1-3.1-3.4v-5.1h1v5.1c0,1.7,0.7,2.6,2.2,2.6
				c1.4,0,2.1-0.8,2.1-2.5v-5.2h1L80.6,241.1L80.6,241.1z"/>
			<path class="st15" d="M82.1,244.3v-1c0.5,0.4,1.1,0.6,1.7,0.6c0.8,0,1.3-0.3,1.3-0.8c0-0.2,0-0.3-0.1-0.4s-0.2-0.2-0.3-0.3
				s-0.3-0.2-0.4-0.2s-0.3-0.1-0.5-0.2c-0.3-0.1-0.5-0.2-0.7-0.3s-0.4-0.2-0.5-0.4s-0.2-0.3-0.3-0.5s-0.1-0.4-0.1-0.6
				c0-0.3,0.1-0.5,0.2-0.8s0.3-0.4,0.5-0.5s0.5-0.3,0.7-0.3s0.6-0.1,0.8-0.1c0.5,0,1,0.1,1.4,0.3v1c-0.4-0.3-0.9-0.4-1.5-0.4
				c-0.2,0-0.3,0-0.5,0.1s-0.3,0.1-0.4,0.2s-0.2,0.2-0.2,0.3s-0.1,0.2-0.1,0.3c0,0.2,0,0.3,0.1,0.4s0.1,0.2,0.3,0.3s0.2,0.2,0.4,0.2
				s0.3,0.1,0.5,0.2c0.3,0.1,0.5,0.2,0.7,0.3s0.4,0.2,0.5,0.4s0.3,0.3,0.3,0.5s0.1,0.4,0.1,0.6c0,0.3-0.1,0.6-0.2,0.8
				s-0.3,0.4-0.5,0.5s-0.5,0.3-0.8,0.3s-0.6,0.1-0.9,0.1C83.1,244.7,82.5,244.6,82.1,244.3z"/>
			<path class="st15" d="M92.3,241.8h-4.2c0,0.7,0.2,1.2,0.5,1.6s0.8,0.5,1.4,0.5c0.7,0,1.3-0.2,1.9-0.7v0.9
				c-0.5,0.4-1.2,0.6-2.1,0.6c-0.8,0-1.5-0.3-2-0.8s-0.7-1.3-0.7-2.3c0-0.9,0.3-1.7,0.8-2.3s1.2-0.9,2-0.9s1.4,0.3,1.8,0.8
				s0.6,1.2,0.6,2.1L92.3,241.8L92.3,241.8z M91.3,241c0-0.6-0.1-1-0.4-1.3s-0.6-0.5-1.1-0.5c-0.4,0-0.8,0.2-1.2,0.5
				s-0.5,0.8-0.6,1.3L91.3,241L91.3,241z"/>
			<path class="st15" d="M96.9,239.5c-0.2-0.1-0.4-0.2-0.7-0.2c-0.4,0-0.8,0.2-1,0.6s-0.4,0.9-0.4,1.6v3.1h-1v-6h1v1.2h0
				c0.1-0.4,0.3-0.8,0.6-1s0.6-0.4,0.9-0.4c0.3,0,0.4,0,0.6,0.1L96.9,239.5L96.9,239.5z"/>
			<path class="st15" d="M98.8,236.1v2.6H98v-2.6H98.8z"/>
			<path class="st15" d="M100.2,244.3v-1c0.5,0.4,1.1,0.6,1.7,0.6c0.8,0,1.3-0.3,1.3-0.8c0-0.2,0-0.3-0.1-0.4s-0.2-0.2-0.3-0.3
				s-0.3-0.2-0.4-0.2s-0.3-0.1-0.5-0.2c-0.3-0.1-0.5-0.2-0.7-0.3s-0.4-0.2-0.5-0.4s-0.2-0.3-0.3-0.5s-0.1-0.4-0.1-0.6
				c0-0.3,0.1-0.5,0.2-0.8s0.3-0.4,0.5-0.5s0.5-0.3,0.7-0.3s0.6-0.1,0.8-0.1c0.5,0,1,0.1,1.4,0.3v1c-0.4-0.3-0.9-0.4-1.5-0.4
				c-0.2,0-0.3,0-0.5,0.1s-0.3,0.1-0.4,0.2s-0.2,0.2-0.2,0.3s-0.1,0.2-0.1,0.3c0,0.2,0,0.3,0.1,0.4s0.1,0.2,0.3,0.3s0.2,0.2,0.4,0.2
				s0.3,0.1,0.5,0.2c0.3,0.1,0.5,0.2,0.7,0.3s0.4,0.2,0.5,0.4s0.3,0.3,0.3,0.5s0.1,0.4,0.1,0.6c0,0.3-0.1,0.6-0.2,0.8
				s-0.3,0.4-0.5,0.5s-0.5,0.3-0.8,0.3s-0.6,0.1-0.9,0.1C101.1,244.7,100.6,244.6,100.2,244.3z"/>
			<path class="st15" d="M69,258.9v-8.4h2.4c0.7,0,1.3,0.2,1.7,0.5s0.6,0.8,0.6,1.4c0,0.5-0.1,0.9-0.4,1.2s-0.6,0.6-1.1,0.8v0
				c0.6,0.1,1,0.3,1.4,0.6s0.5,0.8,0.5,1.4c0,0.7-0.3,1.3-0.8,1.8s-1.2,0.7-1.9,0.7L69,258.9L69,258.9z M70,251.4v2.7h1
				c0.5,0,1-0.1,1.3-0.4s0.5-0.6,0.5-1.1c0-0.8-0.5-1.2-1.6-1.2H70z M70,255v3h1.3c0.6,0,1-0.1,1.3-0.4s0.5-0.6,0.5-1.1
				c0-1-0.7-1.5-2-1.5L70,255L70,255z"/>
			<path class="st15" d="M78.9,253.9c-0.2-0.1-0.4-0.2-0.7-0.2c-0.4,0-0.8,0.2-1,0.6s-0.4,0.9-0.4,1.6v3.1h-1v-6h1v1.2h0
				c0.1-0.4,0.3-0.8,0.6-1s0.6-0.4,0.9-0.4c0.3,0,0.4,0,0.6,0.1L78.9,253.9L78.9,253.9z"/>
			<path class="st15" d="M82.4,259.1c-0.9,0-1.6-0.3-2.1-0.8s-0.8-1.3-0.8-2.2c0-1,0.3-1.8,0.8-2.4s1.3-0.9,2.2-0.9
				c0.9,0,1.6,0.3,2.1,0.8s0.8,1.3,0.8,2.3c0,1-0.3,1.7-0.8,2.3S83.3,259.1,82.4,259.1z M82.5,253.6c-0.6,0-1.1,0.2-1.5,0.6
				s-0.5,1-0.5,1.7c0,0.7,0.2,1.3,0.5,1.7s0.8,0.6,1.5,0.6c0.6,0,1.1-0.2,1.4-0.6s0.5-1,0.5-1.7s-0.2-1.3-0.5-1.7
				S83.1,253.6,82.5,253.6z"/>
			<path class="st15" d="M94.4,252.9l-1.8,6h-1l-1.2-4.3c-0.1-0.2-0.1-0.4-0.1-0.6h0c0,0.1-0.1,0.3-0.1,0.5l-1.3,4.3h-1l-1.8-6h1
				l1.2,4.5c0,0.1,0.1,0.3,0.1,0.5h0.1c0-0.2,0.1-0.4,0.1-0.5l1.4-4.5h0.9l1.2,4.5c0,0.1,0.1,0.3,0.1,0.5h0.1c0-0.1,0-0.3,0.1-0.5
				l1.2-4.5L94.4,252.9L94.4,252.9z"/>
			<path class="st15" d="M95.2,258.7v-1c0.5,0.4,1.1,0.6,1.7,0.6c0.8,0,1.3-0.3,1.3-0.8c0-0.2,0-0.3-0.1-0.4s-0.2-0.2-0.3-0.3
				s-0.3-0.2-0.4-0.2s-0.3-0.1-0.5-0.2c-0.3-0.1-0.5-0.2-0.7-0.3c-0.2-0.1-0.4-0.2-0.5-0.4s-0.2-0.3-0.3-0.5s-0.1-0.4-0.1-0.6
				c0-0.3,0.1-0.5,0.2-0.8s0.3-0.4,0.5-0.5s0.5-0.3,0.7-0.3s0.6-0.1,0.8-0.1c0.5,0,1,0.1,1.4,0.3v1c-0.4-0.3-0.9-0.4-1.5-0.4
				c-0.2,0-0.3,0-0.5,0.1s-0.3,0.1-0.4,0.2s-0.2,0.2-0.2,0.3s-0.1,0.2-0.1,0.3c0,0.2,0,0.3,0.1,0.4s0.1,0.2,0.3,0.3s0.2,0.2,0.4,0.2
				s0.3,0.1,0.5,0.2c0.3,0.1,0.5,0.2,0.7,0.3s0.4,0.2,0.5,0.4s0.3,0.3,0.3,0.5s0.1,0.4,0.1,0.6c0,0.3-0.1,0.5-0.2,0.8
				s-0.3,0.4-0.5,0.5s-0.5,0.3-0.8,0.3s-0.6,0.1-0.9,0.1C96.2,259.1,95.6,259,95.2,258.7z"/>
			<path class="st15" d="M105.4,256.2h-4.2c0,0.7,0.2,1.2,0.5,1.5s0.8,0.5,1.4,0.5c0.7,0,1.3-0.2,1.9-0.7v0.9
				c-0.5,0.4-1.2,0.6-2.1,0.6c-0.8,0-1.5-0.3-2-0.8s-0.7-1.3-0.7-2.3c0-0.9,0.3-1.7,0.8-2.3s1.2-0.9,2-0.9s1.4,0.3,1.8,0.8
				s0.6,1.2,0.6,2.1L105.4,256.2L105.4,256.2z M104.4,255.4c0-0.6-0.1-1-0.4-1.3s-0.6-0.5-1.1-0.5c-0.4,0-0.8,0.2-1.2,0.5
				s-0.5,0.8-0.6,1.3L104.4,255.4L104.4,255.4z"/>
			<path class="st15" d="M110,253.9c-0.2-0.1-0.4-0.2-0.7-0.2c-0.4,0-0.8,0.2-1,0.6s-0.4,0.9-0.4,1.6v3.1h-1v-6h1v1.2h0
				c0.1-0.4,0.3-0.8,0.6-1s0.6-0.4,0.9-0.4c0.3,0,0.4,0,0.6,0.1L110,253.9L110,253.9z"/>
		</g>
		<g>
			<path class="st15" d="M221.2,236.1l-2.4,8.4h-1.1l-1.7-6.1c-0.1-0.3-0.1-0.6-0.1-0.9h0c0,0.3-0.1,0.6-0.1,0.8l-1.7,6.1h-1.1
				l-2.5-8.4h1.1l1.8,6.4c0.1,0.3,0.1,0.6,0.1,0.8h0c0-0.2,0.1-0.5,0.2-0.8l1.9-6.4h0.9l1.8,6.5c0.1,0.2,0.1,0.5,0.1,0.8h0
				c0-0.2,0.1-0.5,0.2-0.8l1.7-6.5L221.2,236.1L221.2,236.1z"/>
			<path class="st15" d="M226.8,241.8h-4.2c0,0.7,0.2,1.2,0.5,1.6s0.8,0.5,1.4,0.5c0.7,0,1.3-0.2,1.9-0.7v0.9
				c-0.5,0.4-1.2,0.6-2.1,0.6c-0.9,0-1.5-0.3-2-0.8s-0.7-1.3-0.7-2.3c0-0.9,0.3-1.7,0.8-2.3s1.2-0.9,2-0.9s1.4,0.3,1.8,0.8
				s0.6,1.2,0.6,2.1L226.8,241.8L226.8,241.8z M225.8,241c0-0.6-0.1-1-0.4-1.3s-0.6-0.5-1.1-0.5c-0.4,0-0.8,0.2-1.1,0.5
				s-0.5,0.8-0.6,1.3L225.8,241L225.8,241z"/>
			<path class="st15" d="M229.3,243.7L229.3,243.7l0,0.9h-1v-8.9h1v3.9h0c0.5-0.8,1.2-1.2,2.1-1.2c0.8,0,1.4,0.3,1.8,0.8
				s0.6,1.3,0.6,2.2c0,1-0.2,1.8-0.7,2.4s-1.2,0.9-2,0.9C230.3,244.7,229.7,244.3,229.3,243.7z M229.2,241.3v0.8
				c0,0.5,0.2,0.9,0.5,1.3s0.7,0.5,1.2,0.5c0.6,0,1-0.2,1.4-0.7s0.5-1.1,0.5-1.9c0-0.7-0.1-1.2-0.5-1.6s-0.7-0.6-1.3-0.6
				c-0.6,0-1,0.2-1.4,0.6S229.2,240.7,229.2,241.3z"/>
			<path class="st15" d="M200.1,258.9H199l-0.9-2.4h-3.6l-0.8,2.4h-1.1l3.2-8.4h1L200.1,258.9z M197.8,255.7l-1.3-3.6
				c0-0.1-0.1-0.3-0.1-0.6h0c0,0.2-0.1,0.4-0.1,0.6l-1.3,3.6H197.8z"/>
			<path class="st15" d="M202.2,258.1L202.2,258.1l0,3.6h-1v-8.8h1v1.1h0c0.5-0.8,1.2-1.2,2.1-1.2c0.8,0,1.4,0.3,1.8,0.8
				s0.6,1.3,0.6,2.2c0,1-0.2,1.8-0.7,2.4s-1.2,0.9-2,0.9C203.2,259.1,202.6,258.7,202.2,258.1z M202.2,255.6v0.8
				c0,0.5,0.2,0.9,0.5,1.3s0.7,0.5,1.2,0.5c0.6,0,1-0.2,1.4-0.7s0.5-1.1,0.5-1.9c0-0.7-0.1-1.2-0.5-1.6s-0.7-0.6-1.3-0.6
				c-0.6,0-1,0.2-1.4,0.6S202.2,255.1,202.2,255.6z"/>
			<path class="st15" d="M209.2,258.1L209.2,258.1l0,3.6h-1v-8.8h1v1.1h0c0.5-0.8,1.2-1.2,2.1-1.2c0.8,0,1.4,0.3,1.8,0.8
				s0.6,1.3,0.6,2.2c0,1-0.2,1.8-0.7,2.4s-1.2,0.9-2,0.9C210.2,259.1,209.6,258.7,209.2,258.1z M209.2,255.6v0.8
				c0,0.5,0.2,0.9,0.5,1.3s0.7,0.5,1.2,0.5c0.6,0,1-0.2,1.4-0.7s0.5-1.1,0.5-1.9c0-0.7-0.1-1.2-0.5-1.6s-0.7-0.6-1.3-0.6
				c-0.6,0-1,0.2-1.4,0.6S209.2,255.1,209.2,255.6z"/>
			<path class="st15" d="M216.2,258.9h-1v-8.9h1V258.9z"/>
			<path class="st15" d="M218.5,251.4c-0.2,0-0.3-0.1-0.4-0.2s-0.2-0.3-0.2-0.4s0.1-0.3,0.2-0.4s0.3-0.2,0.4-0.2
				c0.2,0,0.3,0.1,0.4,0.2s0.2,0.3,0.2,0.4c0,0.2-0.1,0.3-0.2,0.4S218.7,251.4,218.5,251.4z M219,258.9h-1v-6h1V258.9z"/>
			<path class="st15" d="M224.9,258.7c-0.5,0.3-1,0.4-1.6,0.4c-0.9,0-1.6-0.3-2.1-0.8s-0.8-1.3-0.8-2.2c0-1,0.3-1.8,0.9-2.4
				s1.3-0.9,2.3-0.9c0.5,0,1,0.1,1.4,0.3v1c-0.4-0.3-0.9-0.5-1.4-0.5c-0.6,0-1.1,0.2-1.5,0.7s-0.6,1-0.6,1.7c0,0.7,0.2,1.3,0.6,1.7
				s0.9,0.6,1.5,0.6c0.5,0,1-0.2,1.5-0.5L224.9,258.7L224.9,258.7z"/>
			<path class="st15" d="M230.7,258.9h-1V258h0c-0.4,0.7-1,1.1-1.9,1.1c-0.6,0-1.1-0.2-1.4-0.5s-0.5-0.7-0.5-1.3c0-1.1,0.7-1.8,2-2
				l1.8-0.3c0-1-0.4-1.5-1.2-1.5c-0.7,0-1.4,0.3-2,0.7v-1c0.6-0.4,1.3-0.6,2-0.6c1.4,0,2.1,0.8,2.1,2.2L230.7,258.9L230.7,258.9z
				 M229.7,255.9l-1.4,0.2c-0.4,0.1-0.8,0.2-1,0.3s-0.3,0.4-0.3,0.8c0,0.3,0.1,0.5,0.3,0.7s0.5,0.3,0.8,0.3c0.5,0,0.9-0.2,1.2-0.5
				s0.5-0.8,0.5-1.3L229.7,255.9L229.7,255.9z"/>
			<path class="st15" d="M235.2,258.9c-0.2,0.1-0.5,0.2-0.9,0.2c-1.1,0-1.6-0.6-1.6-1.8v-3.6h-1v-0.8h1v-1.5l1-0.3v1.8h1.5v0.8h-1.5
				v3.4c0,0.4,0.1,0.7,0.2,0.9s0.4,0.3,0.7,0.3c0.2,0,0.4-0.1,0.6-0.2L235.2,258.9L235.2,258.9z"/>
			<path class="st15" d="M236.9,251.4c-0.2,0-0.3-0.1-0.4-0.2s-0.2-0.3-0.2-0.4s0.1-0.3,0.2-0.4s0.3-0.2,0.4-0.2
				c0.2,0,0.3,0.1,0.4,0.2s0.2,0.3,0.2,0.4c0,0.2-0.1,0.3-0.2,0.4S237.1,251.4,236.9,251.4z M237.4,258.9h-1v-6h1V258.9z"/>
			<path class="st15" d="M241.7,259.1c-0.9,0-1.6-0.3-2.1-0.8s-0.8-1.3-0.8-2.2c0-1,0.3-1.8,0.8-2.4s1.3-0.9,2.2-0.9
				c0.9,0,1.6,0.3,2.1,0.8s0.8,1.3,0.8,2.3c0,1-0.3,1.7-0.8,2.3S242.6,259.1,241.7,259.1z M241.8,253.6c-0.6,0-1.1,0.2-1.5,0.6
				s-0.5,1-0.5,1.7c0,0.7,0.2,1.3,0.5,1.7s0.9,0.6,1.5,0.6c0.6,0,1.1-0.2,1.4-0.6s0.5-1,0.5-1.7s-0.2-1.3-0.5-1.7
				S242.4,253.6,241.8,253.6z"/>
			<path class="st15" d="M251.2,258.9h-1v-3.4c0-1.3-0.5-1.9-1.4-1.9c-0.5,0-0.9,0.2-1.2,0.5s-0.5,0.8-0.5,1.4v3.4h-1v-6h1v1h0
				c0.4-0.8,1.1-1.1,2-1.1c0.7,0,1.2,0.2,1.5,0.6s0.5,1,0.5,1.8L251.2,258.9L251.2,258.9z"/>
		</g>
	</g>
</g>
<g id="bg">
	<g id="Shapes_1_">
		<rect x="8.8" class="st2" width="245" height="263.9"/>
		<rect x="79.1" class="st3" width="104.7" height="90"/>
		<g>
			<path d="M62.3,100.3h-0.5V83.2c0-0.9,0.7-1.6,1.6-1.6h9.7v0.5h-9.7c-0.6,0-1.1,0.5-1.1,1.1l0,0L62.3,100.3L62.3,100.3z"/>
			<path d="M90.3,100.3h-0.5V83.2c0-0.6-0.5-1.1-1.1-1.1H73.1v-0.5h15.6c0.9,0,1.6,0.7,1.6,1.6L90.3,100.3z"/>
			<polygon points="72.2,98.8 64,98.8 64,83.7 71.4,83.7 71.4,84.3 64.5,84.3 64.5,98.2 72.2,98.2 			"/>
			<polygon points="88,98.8 82.8,98.8 82.8,98.2 87.5,98.2 87.5,84.3 80.8,84.3 80.8,83.7 88,83.7 			"/>
			<path d="M94.4,103.2h-8v-0.5h8c0.6,0,1.1-0.5,1.1-1.1v-0.9h-9.1v-0.5H96v1.4C96,102.4,95.3,103.2,94.4,103.2z"/>
			<path d="M72,103.2H57.6c-0.9,0-1.6-0.7-1.6-1.6v-1.4h16.2v0.5H56.5v0.9c0,0.6,0.5,1.1,1.1,1.1H72L72,103.2z"/>
			<rect x="81.1" y="83.7" width="5.5" height="0.5"/>
			<rect x="65.3" y="83.7" width="15.5" height="0.5"/>
			<path d="M79.6,102.6H79v-5.1c0-0.8-0.7-1.5-1.5-1.5S76,96.7,76,97.5l0,0v5.1h-0.5v-5.1c0-1.1,0.9-2,2-2c1.1,0,2,0.9,2,2V102.6z"
				/>
			<path d="M83.1,102.6h-0.5v-3.7c0-0.8-0.7-1.5-1.5-1.5s-1.5,0.7-1.5,1.5l0,0v3.7H79v-3.7c0-1.1,0.9-2,2-2c1.1,0,2,0.9,2,2V102.6z"
				/>
			<path d="M86.6,112.8h-0.5v-12.5c0-0.8-0.7-1.5-1.5-1.5s-1.5,0.7-1.5,1.5l0,0v2.2h-0.5v-2.2c0-1.1,0.9-2,2-2s2,0.9,2,2V112.8z"/>
			<path d="M86.6,114.3l-14.5,0l-0.2-0.1l0,0l-6.4-6.4c-1-1-1-2.7,0-3.8c1-1,2.7-1,3.8,0l2.8,2.7V91c0-1.1,0.9-2,2-2
				c1.1,0,2,0.9,2,2v9.7h-0.5V91c0-0.8-0.7-1.5-1.5-1.5s-1.5,0.7-1.5,1.5l0,0v16.9l-3.7-3.5c-0.8-0.9-2.1-0.9-3-0.1s-0.9,2.1-0.1,3
				c0,0,0.1,0.1,0.1,0.1l6.4,6.4l0.1,0h13.8v-7.1h0.5L86.6,114.3z"/>
		</g>
		<g>
			<g>
				<g>
					<g>
						<defs>
							<rect id="SVGID_7_" x="62" y="176.5" width="54" height="54"/>
						</defs>
						<clipPath id="SVGID_8_">
							<use xlink:href="#SVGID_7_"  style="overflow:visible;"/>
						</clipPath>
						<g class="st16">
							<path class="st2" d="M111.9,182.4H66.1c-1.8,0-3.3,1.4-3.3,3.2v28.2c0,1.8,1.5,3.2,3.3,3.2h45.8c1.8,0,3.2-1.4,3.3-3.2v-28.2
								C115.1,183.9,113.7,182.4,111.9,182.4z"/>
						</g>
					</g>
					<g>
						<defs>
							<rect id="SVGID_9_" x="62" y="176.5" width="54" height="54"/>
						</defs>
						<clipPath id="SVGID_10_">
							<use xlink:href="#SVGID_9_"  style="overflow:visible;"/>
						</clipPath>
						<g class="st17">
							<path class="st6" d="M115.2,185.4v8.9H62.8v-8.9c0-1.6,1.3-2.9,2.9-2.9h46.5C113.9,182.5,115.2,183.8,115.2,185.4z"/>
						</g>
					</g>
					<g>
						<defs>
							<rect id="SVGID_11_" x="62" y="176.5" width="54" height="54"/>
						</defs>
						<clipPath id="SVGID_12_">
							<use xlink:href="#SVGID_11_"  style="overflow:visible;"/>
						</clipPath>
						<path class="st18" d="M111.9,181.6L111.9,181.6H66.1c0,0,0,0,0,0c-2.2,0-4.1,1.8-4.1,4.1v28.2c0,2.2,1.9,4.1,4.1,4.1
							c0,0,0,0,0,0h22l-0.3,5.1H78l-2.5,1.7h27l-2.5-1.7h-9.8l-0.3-5.1h22h0c2.2,0,4.1-1.8,4.1-4.1v-28.2
							C116,183.4,114.1,181.6,111.9,181.6z M114.3,213.8c0,1.3-1.1,2.4-2.4,2.4c0,0,0,0,0,0H66.1h0c-1.3,0-2.4-1.1-2.4-2.4v-28.1
							c0-1.3,1.1-2.4,2.4-2.4h0h45.8c0,0,0,0,0,0c1.3,0,2.4,1.1,2.4,2.4L114.3,213.8L114.3,213.8z"/>
					</g>
				</g>
			</g>
		</g>
		<g>
			<ellipse class="st8" cx="62.2" cy="217.9" rx="18.5" ry="18.5"/>
			<path class="st9" d="M62.2,237.3c-10.8,0-19.5-8.7-19.5-19.5s8.8-19.5,19.5-19.5s19.5,8.7,19.5,19.5S72.9,237.3,62.2,237.3z
				 M62.2,200.4c-9.6,0-17.5,7.8-17.5,17.5s7.8,17.5,17.5,17.5s17.5-7.8,17.5-17.5C79.7,208.2,71.8,200.4,62.2,200.4z"/>
		</g>
		<g>
			<path class="st10" d="M67.2,208.9c0,2.8-2.2,5-5,5s-5-2.2-5-5c0.1-2.8,2.3-5,5-5C65,203.9,67.2,206.1,67.2,208.9"/>
			<polygon class="st10" points="65.8,215.7 62.2,220.9 58.5,215.7 53.2,215.7 53.2,228.4 71.2,228.4 71.2,215.7 			"/>
			<path class="st11" d="M57.2,208.9c0,2.7,2.2,5,4.9,5l1.3-9.9c-0.4-0.2-0.8-0.2-1.2-0.2C59.4,203.9,57.2,206.1,57.2,208.9"/>
			<polygon class="st11" points="58.5,215.7 53.2,215.7 53.2,228.4 60.3,228.4 61.4,219.7 			"/>
		</g>
		<g>
			<g>
				<line class="st12" x1="76" y1="181.5" x2="76" y2="119.9"/>
				<g>
					<polygon points="79.7,121 76,114.5 72.3,121 					"/>
				</g>
			</g>
		</g>
		<g>
			<g>
				<line class="st12" x1="108.3" y1="176.2" x2="108.3" y2="90"/>
				<g>
					<polygon points="112.1,175.1 108.3,181.5 104.6,175.1 					"/>
				</g>
			</g>
		</g>
		<g>
			<rect x="193.5" y="190.4" class="st2" width="58" height="31.3"/>
			<g>
				<path class="st3" d="M253.9,183.3c0-0.6-0.5-1.1-1.1-1.1h-60.6c-0.6,0-1.1,0.5-1.1,1.1v37.9c0,0.6,0.5,1.1,1.1,1.1h60.6
					c0.6,0,1.1-0.5,1.1-1.1V183.3z M199.8,189.3h-3.1v-3.1h3.1V189.3z M206,189.3h-3.1v-3.1h3.1V189.3z M212.3,189.3h-3.1v-3.1h3.1
					V189.3z M193.5,191.6h58v28.2h-58L193.5,191.6L193.5,191.6z"/>
			</g>
		</g>
		<path d="M198.5,208.7c-2.9-3.9-7.5-5.9-11.9-5.9c-3.2,0-6.4,1-9.1,3.1c-6.6,5.1-7.9,14.4-2.8,21c2.9,3.9,7.4,5.9,11.9,5.9
			c3.2,0,6.4-1,9.1-3.1C202.3,224.7,203.6,215.3,198.5,208.7z M199.2,221.2c-0.5-0.4-1.3-1-2.3-1.8c0.3-0.9,0.3-1.9-0.3-2.7
			c-0.9-1.1-2.4-1.4-3.7-0.6c-1.3-1.2-2.8-2.5-4.3-4.1c4.5-2.5,7.9-2.2,8.2-2.2c0.1,0.1,0.1,0.1,0.1,0.2
			C199.5,213.3,200.2,217.5,199.2,221.2z M191,224.8c-0.1-0.4-0.2-0.7-0.5-1c-0.8-1.1-2.3-1.3-3.4-0.6c-1.1-0.6-2.3-1.4-3.5-2.3
			c-0.1-0.1-0.2-0.2-0.3-0.3c0.5-1.3,0.3-2.7-0.6-3.9c0,0-0.1-0.1-0.1-0.1c0.3-0.3,0.5-0.6,0.8-0.8c1.2-1.1,2.3-2.1,3.4-2.8l0,0
			c0,0,0,0,0,0c0,0,0,0-0.1,0c1.6,1.5,3.4,2.9,5,4.2c-0.4,0.9-0.4,2,0.2,2.9c1,1.3,2.7,1.4,4,0.6c0.1-0.1,0.1-0.1,0.2-0.2
			c1.2,0.8,2.1,1.5,2.6,1.8c-0.4,1-0.9,2-1.5,2.9C196.5,225.4,194.2,225.7,191,224.8z M195,207.9c-2-0.3-5.2-0.2-8.7,1.6
			c-1.2-1.3-2.4-2.6-3.7-4.1c1.3-0.4,2.6-0.6,4-0.6C189.6,204.8,192.6,205.9,195,207.9z M178.6,207.5c0.7-0.5,1.4-1,2.2-1.4
			c0.9,1.5,2.2,3,3.5,4.4c-1.2,0.8-2.4,1.8-3.6,3.1c-0.4,0.5-0.8,0.9-1.2,1.4c-0.6,0-1.3,0.1-1.9,0.5c-1.3-2.4-1.5-4.5-1.4-5.8
			C177,209,177.7,208.2,178.6,207.5z M174.8,212.3c0,1.4,0.2,3.1,1.3,4.9c-0.7,1.3-0.6,3,0.4,4.3l0,0c-0.3,1.3-0.5,2.6-0.6,3.7
			C173.1,221.3,172.9,216.4,174.8,212.3z M194.5,228.2c-2.4,1.8-5.2,2.7-7.9,2.7c-3,0-6-1-8.4-3.1c0-1.3,0.1-3,0.7-4.9
			c1,0.2,2,0,2.9-0.6c0.1,0.1,0.2,0.2,0.3,0.3c1.3,1,2.5,1.8,3.7,2.4c-0.1,0.7,0.1,1.4,0.5,1.9c0.9,1.1,2.6,1.4,3.7,0.5
			c0.3-0.2,0.5-0.4,0.6-0.7c2,0.4,3.7,0.5,5,0.5C195.3,227.6,194.9,227.9,194.5,228.2z"/>
		<g>
			<g>
				<line class="st12" x1="116" y1="191.5" x2="185.6" y2="191.5"/>
				<g>
					<polygon points="184.5,195.3 191,191.5 184.5,187.8 					"/>
				</g>
			</g>
		</g>
		<polygon class="st13" points="108.1,146.3 99.5,152.5 102.8,162.5 113.4,162.5 116.6,152.5 		"/>
		<polygon class="st13" points="141.2,181.6 132.6,187.9 135.9,197.9 146.4,197.9 149.7,187.9 		"/>
	</g>
</g>
<g id="txt">
	<g>
		<g>
			<path class="st19" d="M8.4,94.3H7.7L7,92.6H4.5l-0.6,1.7H3.2l2.3-5.9h0.7L8.4,94.3z M6.8,92l-0.9-2.5c0-0.1-0.1-0.2-0.1-0.4h0
				c0,0.2-0.1,0.3-0.1,0.4L4.8,92H6.8z"/>
			<path class="st19" d="M12.7,94.3H12v-2.4c0-0.9-0.3-1.3-1-1.3c-0.3,0-0.6,0.1-0.8,0.4c-0.2,0.3-0.3,0.6-0.3,1v2.4H9.2v-4.2h0.7
				v0.7h0c0.3-0.5,0.8-0.8,1.4-0.8c0.5,0,0.8,0.1,1.1,0.4c0.2,0.3,0.4,0.7,0.4,1.3V94.3z"/>
			<path class="st19" d="M19.9,94.3h-0.7v-2.4c0-0.5-0.1-0.8-0.2-1c-0.1-0.2-0.4-0.3-0.7-0.3c-0.3,0-0.5,0.1-0.7,0.4
				c-0.2,0.3-0.3,0.6-0.3,0.9v2.4h-0.7v-2.5c0-0.8-0.3-1.2-1-1.2c-0.3,0-0.5,0.1-0.7,0.4c-0.2,0.2-0.3,0.6-0.3,1v2.4h-0.7v-4.2h0.7
				v0.7h0c0.3-0.5,0.7-0.8,1.3-0.8c0.3,0,0.5,0.1,0.8,0.2c0.2,0.2,0.4,0.4,0.4,0.6c0.3-0.6,0.8-0.9,1.4-0.9c0.9,0,1.4,0.6,1.4,1.7
				V94.3z"/>
			<path class="st19" d="M24.5,92.3h-3c0,0.5,0.1,0.8,0.4,1.1c0.2,0.3,0.6,0.4,1,0.4c0.5,0,0.9-0.2,1.3-0.5V94
				c-0.4,0.3-0.9,0.4-1.5,0.4c-0.6,0-1.1-0.2-1.4-0.6c-0.3-0.4-0.5-0.9-0.5-1.6c0-0.7,0.2-1.2,0.6-1.6c0.4-0.4,0.8-0.6,1.4-0.6
				c0.6,0,1,0.2,1.3,0.5c0.3,0.4,0.5,0.9,0.5,1.5V92.3z M23.8,91.8c0-0.4-0.1-0.7-0.3-0.9s-0.4-0.3-0.8-0.3c-0.3,0-0.6,0.1-0.8,0.3
				c-0.2,0.2-0.4,0.5-0.4,0.9H23.8z"/>
			<path class="st19" d="M26.2,94.3h-0.7V88h0.7V94.3z"/>
			<path class="st19" d="M31.1,94.3h-0.7v-0.7h0c-0.3,0.5-0.8,0.8-1.5,0.8c-0.5,0-1-0.2-1.3-0.6c-0.3-0.4-0.5-0.9-0.5-1.5
				c0-0.7,0.2-1.3,0.5-1.7s0.8-0.6,1.4-0.6c0.6,0,1,0.2,1.3,0.7h0V88h0.7V94.3z M30.4,92.4v-0.6c0-0.3-0.1-0.6-0.3-0.9
				s-0.5-0.4-0.9-0.4c-0.4,0-0.7,0.2-1,0.5s-0.4,0.7-0.4,1.3c0,0.5,0.1,0.9,0.3,1.2c0.2,0.3,0.5,0.4,0.9,0.4c0.4,0,0.7-0.1,0.9-0.4
				S30.4,92.8,30.4,92.4z"/>
			<path class="st19" d="M35.8,92.3h-3c0,0.5,0.1,0.8,0.4,1.1c0.2,0.3,0.6,0.4,1,0.4c0.5,0,0.9-0.2,1.3-0.5V94
				c-0.4,0.3-0.9,0.4-1.5,0.4c-0.6,0-1.1-0.2-1.4-0.6c-0.3-0.4-0.5-0.9-0.5-1.6c0-0.7,0.2-1.2,0.6-1.6c0.4-0.4,0.8-0.6,1.4-0.6
				c0.6,0,1,0.2,1.3,0.5c0.3,0.4,0.5,0.9,0.5,1.5V92.3z M35.1,91.8c0-0.4-0.1-0.7-0.3-0.9s-0.4-0.3-0.8-0.3c-0.3,0-0.6,0.1-0.8,0.3
				c-0.2,0.2-0.4,0.5-0.4,0.9H35.1z"/>
			<path class="st19" d="M36.5,94.1v-0.7c0.4,0.3,0.8,0.4,1.2,0.4c0.6,0,0.9-0.2,0.9-0.6c0-0.1,0-0.2-0.1-0.3
				c-0.1-0.1-0.1-0.1-0.2-0.2c-0.1-0.1-0.2-0.1-0.3-0.2c-0.1,0-0.2-0.1-0.4-0.2c-0.2-0.1-0.4-0.1-0.5-0.2s-0.3-0.2-0.4-0.3
				c-0.1-0.1-0.2-0.2-0.2-0.3c0-0.1-0.1-0.3-0.1-0.4c0-0.2,0-0.4,0.1-0.5s0.2-0.3,0.4-0.4c0.2-0.1,0.3-0.2,0.5-0.2S38,90,38.2,90
				c0.4,0,0.7,0.1,1,0.2v0.7c-0.3-0.2-0.7-0.3-1.1-0.3c-0.1,0-0.2,0-0.3,0c-0.1,0-0.2,0.1-0.3,0.1c-0.1,0.1-0.1,0.1-0.2,0.2
				c0,0.1-0.1,0.2-0.1,0.2c0,0.1,0,0.2,0.1,0.3c0,0.1,0.1,0.1,0.2,0.2c0.1,0.1,0.2,0.1,0.3,0.2s0.2,0.1,0.4,0.2
				c0.2,0.1,0.4,0.1,0.5,0.2c0.1,0.1,0.3,0.2,0.4,0.3s0.2,0.2,0.2,0.3c0.1,0.1,0.1,0.3,0.1,0.4c0,0.2,0,0.4-0.1,0.5
				c-0.1,0.2-0.2,0.3-0.4,0.4c-0.2,0.1-0.3,0.2-0.5,0.2c-0.2,0-0.4,0.1-0.6,0.1C37.2,94.4,36.9,94.3,36.5,94.1z"/>
			<path class="st19" d="M43.7,92.3h-3c0,0.5,0.1,0.8,0.4,1.1c0.2,0.3,0.6,0.4,1,0.4c0.5,0,0.9-0.2,1.3-0.5V94
				c-0.4,0.3-0.9,0.4-1.5,0.4c-0.6,0-1.1-0.2-1.4-0.6c-0.3-0.4-0.5-0.9-0.5-1.6c0-0.7,0.2-1.2,0.6-1.6C41,90.2,41.4,90,42,90
				c0.6,0,1,0.2,1.3,0.5c0.3,0.4,0.5,0.9,0.5,1.5V92.3z M43,91.8c0-0.4-0.1-0.7-0.3-0.9s-0.4-0.3-0.8-0.3c-0.3,0-0.6,0.1-0.8,0.3
				c-0.2,0.2-0.4,0.5-0.4,0.9H43z"/>
			<path class="st19" d="M45,89c-0.1,0-0.2,0-0.3-0.1s-0.1-0.2-0.1-0.3s0-0.2,0.1-0.3s0.2-0.1,0.3-0.1c0.1,0,0.2,0,0.3,0.1
				c0.1,0.1,0.1,0.2,0.1,0.3c0,0.1,0,0.2-0.1,0.3C45.3,88.9,45.2,89,45,89z M45.4,94.3h-0.7v-4.2h0.7V94.3z"/>
			<path class="st19" d="M48.7,94.2c-0.2,0.1-0.4,0.1-0.6,0.1c-0.7,0-1.1-0.4-1.1-1.2v-2.5h-0.7v-0.6h0.7v-1l0.7-0.2v1.3h1.1v0.6
				h-1.1V93c0,0.3,0,0.5,0.1,0.6c0.1,0.1,0.3,0.2,0.5,0.2c0.2,0,0.3,0,0.4-0.1V94.2z"/>
			<path class="st19" d="M52.9,92.3h-3c0,0.5,0.1,0.8,0.4,1.1c0.2,0.3,0.6,0.4,1,0.4c0.5,0,0.9-0.2,1.3-0.5V94
				c-0.4,0.3-0.9,0.4-1.5,0.4c-0.6,0-1.1-0.2-1.4-0.6c-0.3-0.4-0.5-0.9-0.5-1.6c0-0.7,0.2-1.2,0.6-1.6c0.4-0.4,0.8-0.6,1.4-0.6
				c0.6,0,1,0.2,1.3,0.5c0.3,0.4,0.5,0.9,0.5,1.5V92.3z M52.2,91.8c0-0.4-0.1-0.7-0.3-0.9s-0.4-0.3-0.8-0.3c-0.3,0-0.6,0.1-0.8,0.3
				c-0.2,0.2-0.4,0.5-0.4,0.9H52.2z"/>
		</g>
	</g>
	<g>
		<g>
			<path class="st19" d="M67.5,244.2v-5.9h1.7c0.5,0,0.9,0.1,1.2,0.4c0.3,0.3,0.5,0.6,0.5,1c0,0.3-0.1,0.6-0.3,0.9
				c-0.2,0.2-0.4,0.4-0.8,0.5v0c0.4,0,0.7,0.2,1,0.5c0.2,0.3,0.4,0.6,0.4,1c0,0.5-0.2,0.9-0.5,1.2s-0.8,0.5-1.4,0.5H67.5z
				 M68.2,238.9v1.9h0.7c0.4,0,0.7-0.1,0.9-0.3s0.3-0.4,0.3-0.8c0-0.6-0.4-0.9-1.1-0.9H68.2z M68.2,241.4v2.1h0.9
				c0.4,0,0.7-0.1,0.9-0.3c0.2-0.2,0.3-0.5,0.3-0.8c0-0.7-0.5-1-1.4-1H68.2z"/>
			<path class="st19" d="M74.4,240.6c-0.1-0.1-0.3-0.1-0.5-0.1c-0.3,0-0.5,0.1-0.7,0.4s-0.3,0.6-0.3,1.1v2.2h-0.7V240h0.7v0.9h0
				c0.1-0.3,0.2-0.5,0.4-0.7c0.2-0.2,0.4-0.2,0.7-0.2c0.2,0,0.3,0,0.4,0.1V240.6z"/>
			<path class="st19" d="M76.8,244.3c-0.6,0-1.1-0.2-1.5-0.6c-0.4-0.4-0.6-0.9-0.6-1.6c0-0.7,0.2-1.3,0.6-1.7
				c0.4-0.4,0.9-0.6,1.6-0.6c0.6,0,1.1,0.2,1.5,0.6c0.4,0.4,0.5,0.9,0.5,1.6c0,0.7-0.2,1.2-0.6,1.6C78,244.1,77.5,244.3,76.8,244.3z
				 M76.9,240.4c-0.4,0-0.8,0.1-1,0.4c-0.3,0.3-0.4,0.7-0.4,1.2c0,0.5,0.1,0.9,0.4,1.2c0.3,0.3,0.6,0.4,1,0.4c0.4,0,0.8-0.1,1-0.4
				s0.4-0.7,0.4-1.2c0-0.5-0.1-0.9-0.4-1.2S77.3,240.4,76.9,240.4z"/>
			<path class="st19" d="M85.3,240l-1.3,4.2h-0.7l-0.9-3c0-0.1-0.1-0.2-0.1-0.4h0c0,0.1,0,0.2-0.1,0.4l-0.9,3h-0.7l-1.3-4.2h0.7
				l0.9,3.2c0,0.1,0,0.2,0.1,0.4h0c0-0.1,0-0.3,0.1-0.4l1-3.2h0.6l0.9,3.2c0,0.1,0,0.2,0.1,0.4h0c0-0.1,0-0.2,0.1-0.4l0.9-3.2H85.3z
				"/>
			<path class="st19" d="M85.8,244v-0.7c0.4,0.3,0.8,0.4,1.2,0.4c0.6,0,0.9-0.2,0.9-0.6c0-0.1,0-0.2-0.1-0.3
				c-0.1-0.1-0.1-0.1-0.2-0.2c-0.1-0.1-0.2-0.1-0.3-0.2c-0.1,0-0.2-0.1-0.4-0.2c-0.2-0.1-0.4-0.1-0.5-0.2c-0.1-0.1-0.3-0.2-0.4-0.3
				c-0.1-0.1-0.2-0.2-0.2-0.3c0-0.1-0.1-0.3-0.1-0.4c0-0.2,0-0.4,0.1-0.5c0.1-0.2,0.2-0.3,0.4-0.4c0.2-0.1,0.3-0.2,0.5-0.2
				c0.2-0.1,0.4-0.1,0.6-0.1c0.4,0,0.7,0.1,1,0.2v0.7c-0.3-0.2-0.7-0.3-1.1-0.3c-0.1,0-0.2,0-0.3,0c-0.1,0-0.2,0.1-0.3,0.1
				c-0.1,0.1-0.1,0.1-0.2,0.2c0,0.1-0.1,0.2-0.1,0.2c0,0.1,0,0.2,0.1,0.3c0,0.1,0.1,0.1,0.2,0.2c0.1,0.1,0.2,0.1,0.3,0.2
				s0.2,0.1,0.4,0.2c0.2,0.1,0.4,0.1,0.5,0.2c0.1,0.1,0.3,0.2,0.4,0.3s0.2,0.2,0.2,0.3c0.1,0.1,0.1,0.3,0.1,0.4c0,0.2,0,0.4-0.1,0.5
				c-0.1,0.2-0.2,0.3-0.4,0.4s-0.3,0.2-0.5,0.2c-0.2,0-0.4,0.1-0.6,0.1C86.5,244.3,86.1,244.2,85.8,244z"/>
			<path class="st19" d="M93,242.2h-3c0,0.5,0.1,0.8,0.4,1.1c0.2,0.3,0.6,0.4,1,0.4c0.5,0,0.9-0.2,1.3-0.5v0.6
				c-0.4,0.3-0.9,0.4-1.5,0.4c-0.6,0-1.1-0.2-1.4-0.6c-0.3-0.4-0.5-0.9-0.5-1.6c0-0.7,0.2-1.2,0.6-1.6c0.4-0.4,0.8-0.6,1.4-0.6
				c0.6,0,1,0.2,1.3,0.5s0.5,0.9,0.5,1.5V242.2z M92.3,241.7c0-0.4-0.1-0.7-0.3-0.9c-0.2-0.2-0.4-0.3-0.8-0.3
				c-0.3,0-0.6,0.1-0.8,0.3c-0.2,0.2-0.4,0.5-0.4,0.9H92.3z"/>
			<path class="st19" d="M96.1,240.6c-0.1-0.1-0.3-0.1-0.5-0.1c-0.3,0-0.5,0.1-0.7,0.4s-0.3,0.6-0.3,1.1v2.2h-0.7V240h0.7v0.9h0
				c0.1-0.3,0.2-0.5,0.4-0.7c0.2-0.2,0.4-0.2,0.7-0.2c0.2,0,0.3,0,0.4,0.1V240.6z"/>
			<path class="st19" d="M102.7,244.2H102v-0.7h0c-0.3,0.5-0.8,0.8-1.5,0.8c-0.5,0-1-0.2-1.3-0.6c-0.3-0.4-0.5-0.9-0.5-1.5
				c0-0.7,0.2-1.3,0.5-1.7s0.8-0.6,1.4-0.6c0.6,0,1,0.2,1.3,0.7h0v-2.6h0.7V244.2z M102,242.3v-0.6c0-0.3-0.1-0.6-0.3-0.9
				s-0.5-0.4-0.9-0.4c-0.4,0-0.7,0.2-1,0.5s-0.4,0.7-0.4,1.3c0,0.5,0.1,0.9,0.3,1.2c0.2,0.3,0.5,0.4,0.9,0.4c0.4,0,0.7-0.1,0.9-0.4
				S102,242.7,102,242.3z"/>
			<path class="st19" d="M107.4,242.2h-3c0,0.5,0.1,0.8,0.4,1.1c0.2,0.3,0.6,0.4,1,0.4c0.5,0,0.9-0.2,1.3-0.5v0.6
				c-0.4,0.3-0.9,0.4-1.5,0.4c-0.6,0-1.1-0.2-1.4-0.6c-0.3-0.4-0.5-0.9-0.5-1.6c0-0.7,0.2-1.2,0.6-1.6c0.4-0.4,0.8-0.6,1.4-0.6
				c0.6,0,1,0.2,1.3,0.5s0.5,0.9,0.5,1.5V242.2z M106.7,241.7c0-0.4-0.1-0.7-0.3-0.9c-0.2-0.2-0.4-0.3-0.8-0.3
				c-0.3,0-0.6,0.1-0.8,0.3c-0.2,0.2-0.4,0.5-0.4,0.9H106.7z"/>
			<path class="st19" d="M108.1,244v-0.7c0.4,0.3,0.8,0.4,1.2,0.4c0.6,0,0.9-0.2,0.9-0.6c0-0.1,0-0.2-0.1-0.3
				c-0.1-0.1-0.1-0.1-0.2-0.2c-0.1-0.1-0.2-0.1-0.3-0.2c-0.1,0-0.2-0.1-0.4-0.2c-0.2-0.1-0.4-0.1-0.5-0.2c-0.1-0.1-0.3-0.2-0.4-0.3
				c-0.1-0.1-0.2-0.2-0.2-0.3c0-0.1-0.1-0.3-0.1-0.4c0-0.2,0-0.4,0.1-0.5c0.1-0.2,0.2-0.3,0.4-0.4c0.2-0.1,0.3-0.2,0.5-0.2
				c0.2-0.1,0.4-0.1,0.6-0.1c0.4,0,0.7,0.1,1,0.2v0.7c-0.3-0.2-0.7-0.3-1.1-0.3c-0.1,0-0.2,0-0.3,0c-0.1,0-0.2,0.1-0.3,0.1
				c-0.1,0.1-0.1,0.1-0.2,0.2c0,0.1-0.1,0.2-0.1,0.2c0,0.1,0,0.2,0.1,0.3c0,0.1,0.1,0.1,0.2,0.2c0.1,0.1,0.2,0.1,0.3,0.2
				s0.2,0.1,0.4,0.2c0.2,0.1,0.4,0.1,0.5,0.2c0.1,0.1,0.3,0.2,0.4,0.3s0.2,0.2,0.2,0.3c0.1,0.1,0.1,0.3,0.1,0.4c0,0.2,0,0.4-0.1,0.5
				c-0.1,0.2-0.2,0.3-0.4,0.4s-0.3,0.2-0.5,0.2c-0.2,0-0.4,0.1-0.6,0.1C108.8,244.3,108.5,244.2,108.1,244z"/>
			<path class="st19" d="M71.7,254.4v-5.9h1.7c0.5,0,0.9,0.1,1.2,0.4c0.3,0.3,0.5,0.6,0.5,1c0,0.3-0.1,0.6-0.3,0.9
				c-0.2,0.2-0.4,0.4-0.8,0.5v0c0.4,0,0.7,0.2,1,0.5c0.2,0.3,0.4,0.6,0.4,1c0,0.5-0.2,0.9-0.5,1.2s-0.8,0.5-1.4,0.5H71.7z
				 M72.4,249.1v1.9h0.7c0.4,0,0.7-0.1,0.9-0.3s0.3-0.4,0.3-0.8c0-0.6-0.4-0.9-1.1-0.9H72.4z M72.4,251.6v2.1h0.9
				c0.4,0,0.7-0.1,0.9-0.3c0.2-0.2,0.3-0.5,0.3-0.8c0-0.7-0.5-1-1.4-1H72.4z"/>
			<path class="st19" d="M79.8,252.4h-3c0,0.5,0.1,0.8,0.4,1.1c0.2,0.3,0.6,0.4,1,0.4c0.5,0,0.9-0.2,1.3-0.5v0.6
				c-0.4,0.3-0.9,0.4-1.5,0.4c-0.6,0-1.1-0.2-1.4-0.6c-0.3-0.4-0.5-0.9-0.5-1.6c0-0.7,0.2-1.2,0.6-1.6c0.4-0.4,0.8-0.6,1.4-0.6
				c0.6,0,1,0.2,1.3,0.5s0.5,0.9,0.5,1.5V252.4z M79.2,251.9c0-0.4-0.1-0.7-0.3-0.9c-0.2-0.2-0.4-0.3-0.8-0.3
				c-0.3,0-0.6,0.1-0.8,0.3c-0.2,0.2-0.4,0.5-0.4,0.9H79.2z"/>
			<path class="st19" d="M84.3,254.4h-0.7V252c0-0.9-0.3-1.3-1-1.3c-0.3,0-0.6,0.1-0.8,0.4c-0.2,0.3-0.3,0.6-0.3,1v2.4h-0.7v-4.2
				h0.7v0.7h0c0.3-0.5,0.8-0.8,1.4-0.8c0.5,0,0.8,0.1,1.1,0.4c0.2,0.3,0.4,0.7,0.4,1.3V254.4z"/>
			<path class="st19" d="M89,254.4h-0.7v-0.7h0c-0.3,0.5-0.7,0.8-1.3,0.8c-1,0-1.5-0.6-1.5-1.8v-2.5h0.7v2.4c0,0.9,0.3,1.3,1,1.3
				c0.3,0,0.6-0.1,0.8-0.4c0.2-0.2,0.3-0.6,0.3-1v-2.4H89V254.4z"/>
			<path class="st19" d="M92.2,254.3c-0.2,0.1-0.4,0.1-0.6,0.1c-0.7,0-1.1-0.4-1.1-1.2v-2.5h-0.7v-0.6h0.7v-1l0.7-0.2v1.3h1.1v0.6
				h-1.1v2.4c0,0.3,0,0.5,0.1,0.6c0.1,0.1,0.3,0.2,0.5,0.2c0.2,0,0.3,0,0.4-0.1V254.3z"/>
			<path class="st19" d="M96,250.4l-2.5,3.5H96v0.6h-3.5v-0.2l2.5-3.4h-2.3v-0.6H96V250.4z"/>
			<path class="st19" d="M100.3,252.4h-3c0,0.5,0.1,0.8,0.4,1.1c0.2,0.3,0.6,0.4,1,0.4c0.5,0,0.9-0.2,1.3-0.5v0.6
				c-0.4,0.3-0.9,0.4-1.5,0.4c-0.6,0-1.1-0.2-1.4-0.6c-0.3-0.4-0.5-0.9-0.5-1.6c0-0.7,0.2-1.2,0.6-1.6c0.4-0.4,0.8-0.6,1.4-0.6
				c0.6,0,1,0.2,1.3,0.5s0.5,0.9,0.5,1.5V252.4z M99.6,251.9c0-0.4-0.1-0.7-0.3-0.9c-0.2-0.2-0.4-0.3-0.8-0.3
				c-0.3,0-0.6,0.1-0.8,0.3c-0.2,0.2-0.4,0.5-0.4,0.9H99.6z"/>
			<path class="st19" d="M103.4,250.8c-0.1-0.1-0.3-0.1-0.5-0.1c-0.3,0-0.5,0.1-0.7,0.4s-0.3,0.6-0.3,1.1v2.2h-0.7v-4.2h0.7v0.9h0
				c0.1-0.3,0.2-0.5,0.4-0.7c0.2-0.2,0.4-0.2,0.7-0.2c0.2,0,0.3,0,0.4,0.1V250.8z"/>
			<path class="st19" d="M103.9,254.2v-0.7c0.4,0.3,0.8,0.4,1.2,0.4c0.6,0,0.9-0.2,0.9-0.6c0-0.1,0-0.2-0.1-0.3
				c-0.1-0.1-0.1-0.1-0.2-0.2c-0.1-0.1-0.2-0.1-0.3-0.2c-0.1,0-0.2-0.1-0.4-0.2c-0.2-0.1-0.4-0.1-0.5-0.2c-0.1-0.1-0.3-0.2-0.4-0.3
				c-0.1-0.1-0.2-0.2-0.2-0.3c0-0.1-0.1-0.3-0.1-0.4c0-0.2,0-0.4,0.1-0.5c0.1-0.2,0.2-0.3,0.4-0.4c0.2-0.1,0.3-0.2,0.5-0.2
				c0.2-0.1,0.4-0.1,0.6-0.1c0.4,0,0.7,0.1,1,0.2v0.7c-0.3-0.2-0.7-0.3-1.1-0.3c-0.1,0-0.2,0-0.3,0c-0.1,0-0.2,0.1-0.3,0.1
				c-0.1,0.1-0.1,0.1-0.2,0.2c0,0.1-0.1,0.2-0.1,0.2c0,0.1,0,0.2,0.1,0.3c0,0.1,0.1,0.1,0.2,0.2c0.1,0.1,0.2,0.1,0.3,0.2
				s0.2,0.1,0.4,0.2c0.2,0.1,0.4,0.1,0.5,0.2c0.1,0.1,0.3,0.2,0.4,0.3s0.2,0.2,0.2,0.3c0.1,0.1,0.1,0.3,0.1,0.4c0,0.2,0,0.4-0.1,0.5
				c-0.1,0.2-0.2,0.3-0.4,0.4s-0.3,0.2-0.5,0.2c-0.2,0-0.4,0.1-0.6,0.1C104.6,254.5,104.2,254.4,103.9,254.2z"/>
		</g>
	</g>
	<g>
		<g>
			<path class="st19" d="M201.2,235.9l-1.7,5.9h-0.8l-1.2-4.3c-0.1-0.2-0.1-0.4-0.1-0.6h0c0,0.2-0.1,0.4-0.1,0.6l-1.2,4.3h-0.8
				l-1.7-5.9h0.8l1.3,4.5c0.1,0.2,0.1,0.4,0.1,0.6h0c0-0.1,0.1-0.3,0.1-0.6l1.3-4.5h0.7l1.3,4.6c0,0.2,0.1,0.3,0.1,0.6h0
				c0-0.1,0-0.3,0.1-0.6l1.2-4.6H201.2z"/>
			<path class="st19" d="M204.8,239.8h-3c0,0.5,0.1,0.8,0.4,1.1c0.2,0.3,0.6,0.4,1,0.4c0.5,0,0.9-0.2,1.3-0.5v0.6
				c-0.4,0.3-0.9,0.4-1.5,0.4c-0.6,0-1.1-0.2-1.4-0.6c-0.3-0.4-0.5-0.9-0.5-1.6c0-0.7,0.2-1.2,0.6-1.6s0.8-0.6,1.4-0.6
				s1,0.2,1.3,0.5s0.5,0.9,0.5,1.5V239.8z M204.1,239.3c0-0.4-0.1-0.7-0.3-0.9c-0.2-0.2-0.4-0.3-0.8-0.3c-0.3,0-0.6,0.1-0.8,0.3
				s-0.4,0.5-0.4,0.9H204.1z"/>
			<path class="st19" d="M206.3,241.2L206.3,241.2l0,0.6h-0.7v-6.3h0.7v2.8h0c0.3-0.6,0.8-0.8,1.5-0.8c0.5,0,1,0.2,1.3,0.6
				c0.3,0.4,0.5,0.9,0.5,1.5c0,0.7-0.2,1.3-0.5,1.7c-0.3,0.4-0.8,0.6-1.4,0.6C207,241.9,206.6,241.6,206.3,241.2z M206.3,239.5v0.6
				c0,0.3,0.1,0.6,0.3,0.9c0.2,0.2,0.5,0.4,0.9,0.4c0.4,0,0.7-0.2,1-0.5c0.2-0.3,0.3-0.8,0.3-1.3c0-0.5-0.1-0.8-0.3-1.1
				c-0.2-0.3-0.5-0.4-0.9-0.4c-0.4,0-0.7,0.1-0.9,0.4C206.4,238.7,206.3,239.1,206.3,239.5z"/>
			<path class="st19" d="M213.4,241.8h-0.7v-0.7h0c-0.3,0.5-0.7,0.8-1.3,0.8c-0.4,0-0.8-0.1-1-0.3c-0.2-0.2-0.4-0.5-0.4-0.9
				c0-0.8,0.5-1.2,1.4-1.4l1.3-0.2c0-0.7-0.3-1.1-0.9-1.1c-0.5,0-1,0.2-1.4,0.5v-0.7c0.4-0.3,0.9-0.4,1.4-0.4c1,0,1.5,0.5,1.5,1.6
				V241.8z M212.7,239.6l-1,0.1c-0.3,0-0.6,0.1-0.7,0.2c-0.2,0.1-0.2,0.3-0.2,0.6c0,0.2,0.1,0.4,0.2,0.5c0.1,0.1,0.3,0.2,0.6,0.2
				c0.3,0,0.6-0.1,0.8-0.4s0.3-0.5,0.3-0.9V239.6z"/>
			<path class="st19" d="M218,241.8h-0.7v-2.4c0-0.9-0.3-1.3-1-1.3c-0.3,0-0.6,0.1-0.8,0.4c-0.2,0.3-0.3,0.6-0.3,1v2.4h-0.7v-4.2
				h0.7v0.7h0c0.3-0.5,0.8-0.8,1.4-0.8c0.5,0,0.8,0.1,1.1,0.4s0.4,0.7,0.4,1.3V241.8z"/>
			<path class="st19" d="M224.4,237.6l-1.3,4.2h-0.7l-0.9-3c0-0.1-0.1-0.2-0.1-0.4h0c0,0.1,0,0.2-0.1,0.4l-0.9,3h-0.7l-1.3-4.2h0.7
				l0.9,3.2c0,0.1,0,0.2,0.1,0.4h0c0-0.1,0-0.3,0.1-0.4l1-3.2h0.6l0.9,3.2c0,0.1,0,0.2,0.1,0.4h0c0-0.1,0-0.2,0.1-0.4l0.9-3.2H224.4
				z"/>
			<path class="st19" d="M228.3,239.8h-3c0,0.5,0.1,0.8,0.4,1.1c0.2,0.3,0.6,0.4,1,0.4c0.5,0,0.9-0.2,1.3-0.5v0.6
				c-0.4,0.3-0.9,0.4-1.5,0.4c-0.6,0-1.1-0.2-1.4-0.6c-0.3-0.4-0.5-0.9-0.5-1.6c0-0.7,0.2-1.2,0.6-1.6s0.8-0.6,1.4-0.6
				s1,0.2,1.3,0.5s0.5,0.9,0.5,1.5V239.8z M227.6,239.3c0-0.4-0.1-0.7-0.3-0.9c-0.2-0.2-0.4-0.3-0.8-0.3c-0.3,0-0.6,0.1-0.8,0.3
				s-0.4,0.5-0.4,0.9H227.6z"/>
			<path class="st19" d="M232.7,241.8H232v-2.4c0-0.9-0.3-1.3-1-1.3c-0.3,0-0.6,0.1-0.8,0.4c-0.2,0.3-0.3,0.6-0.3,1v2.4h-0.7v-4.2
				h0.7v0.7h0c0.3-0.5,0.8-0.8,1.4-0.8c0.5,0,0.8,0.1,1.1,0.4c0.2,0.3,0.4,0.7,0.4,1.3V241.8z"/>
			<path class="st19" d="M237.3,241.8h-0.7v-0.7h0c-0.3,0.5-0.8,0.8-1.5,0.8c-0.5,0-1-0.2-1.3-0.6c-0.3-0.4-0.5-0.9-0.5-1.5
				c0-0.7,0.2-1.3,0.5-1.7c0.4-0.4,0.8-0.6,1.4-0.6c0.6,0,1,0.2,1.3,0.7h0v-2.6h0.7V241.8z M236.7,239.9v-0.6c0-0.3-0.1-0.6-0.3-0.9
				s-0.5-0.4-0.9-0.4c-0.4,0-0.7,0.2-1,0.5c-0.2,0.3-0.4,0.7-0.4,1.3c0,0.5,0.1,0.9,0.3,1.2s0.5,0.4,0.9,0.4c0.4,0,0.7-0.1,0.9-0.4
				S236.7,240.3,236.7,239.9z"/>
			<path class="st19" d="M241.9,241.8h-0.7v-0.7h0c-0.3,0.5-0.7,0.8-1.3,0.8c-1,0-1.5-0.6-1.5-1.8v-2.5h0.7v2.4c0,0.9,0.3,1.3,1,1.3
				c0.3,0,0.6-0.1,0.8-0.4c0.2-0.2,0.3-0.6,0.3-1v-2.4h0.7V241.8z"/>
			<path class="st19" d="M246.6,241.8h-0.7v-2.4c0-0.9-0.3-1.3-1-1.3c-0.3,0-0.6,0.1-0.8,0.4c-0.2,0.3-0.3,0.6-0.3,1v2.4h-0.7v-4.2
				h0.7v0.7h0c0.3-0.5,0.8-0.8,1.4-0.8c0.5,0,0.8,0.1,1.1,0.4s0.4,0.7,0.4,1.3V241.8z"/>
			<path class="st19" d="M251.2,241.4c0,1.6-0.7,2.3-2.2,2.3c-0.5,0-1-0.1-1.4-0.3v-0.7c0.5,0.3,0.9,0.4,1.4,0.4
				c1,0,1.6-0.6,1.6-1.7v-0.5h0c-0.3,0.5-0.8,0.8-1.5,0.8c-0.5,0-0.9-0.2-1.3-0.6c-0.3-0.4-0.5-0.9-0.5-1.5c0-0.7,0.2-1.3,0.5-1.7
				c0.3-0.4,0.8-0.6,1.4-0.6c0.6,0,1,0.2,1.3,0.7h0v-0.6h0.7V241.4z M250.6,239.9v-0.6c0-0.3-0.1-0.6-0.3-0.9
				c-0.2-0.2-0.5-0.4-0.8-0.4c-0.4,0-0.7,0.2-1,0.5c-0.2,0.3-0.4,0.7-0.4,1.3c0,0.5,0.1,0.8,0.3,1.1c0.2,0.3,0.5,0.4,0.9,0.4
				c0.4,0,0.7-0.1,0.9-0.4C250.4,240.6,250.6,240.3,250.6,239.9z"/>
		</g>
	</g>
	<g>
		<rect x="98.6" y="23.9" class="st14" width="64.5" height="60.7"/>
		<path class="st20" d="M114.1,32.8h-1.9v-5c0-0.5,0-1.1,0.1-1.8h0c-0.1,0.5-0.2,0.9-0.3,1.1l-2,5.7h-1.5l-2-5.7
			c-0.1-0.2-0.1-0.5-0.3-1.2h-0.1c0.1,0.8,0.1,1.6,0.1,2.2v4.6h-1.7v-8.4h2.8l1.7,5c0.1,0.4,0.2,0.8,0.3,1.2h0
			c0.1-0.5,0.2-0.9,0.3-1.2l1.7-5h2.7V32.8z"/>
		<path class="st20" d="M116.8,25.8c-0.3,0-0.6-0.1-0.8-0.3s-0.3-0.4-0.3-0.7c0-0.3,0.1-0.5,0.3-0.7s0.5-0.3,0.8-0.3
			c0.3,0,0.6,0.1,0.8,0.3s0.3,0.4,0.3,0.7c0,0.3-0.1,0.5-0.3,0.7S117.1,25.8,116.8,25.8z M117.7,32.8h-1.9v-6h1.9V32.8z"/>
		<path class="st20" d="M123.8,32.6c-0.4,0.2-1,0.4-1.8,0.4c-0.9,0-1.7-0.3-2.2-0.8s-0.9-1.3-0.9-2.2c0-1,0.3-1.8,0.9-2.4
			s1.4-0.9,2.5-0.9c0.7,0,1.2,0.1,1.5,0.3v1.6c-0.4-0.3-0.8-0.4-1.3-0.4c-0.5,0-1,0.2-1.3,0.5s-0.5,0.7-0.5,1.3
			c0,0.5,0.1,0.9,0.4,1.3s0.7,0.5,1.2,0.5c0.5,0,0.9-0.1,1.4-0.4V32.6z"/>
		<path class="st20" d="M128.9,28.5c-0.2-0.1-0.5-0.2-0.8-0.2c-0.4,0-0.7,0.1-0.9,0.4s-0.3,0.7-0.3,1.2v2.9H125v-6h1.9v1.1h0
			c0.3-0.8,0.8-1.2,1.6-1.2c0.2,0,0.3,0,0.5,0.1V28.5z"/>
		<path class="st20" d="M132.6,32.9c-1,0-1.8-0.3-2.4-0.8s-0.9-1.3-0.9-2.3c0-1,0.3-1.8,0.9-2.3s1.4-0.8,2.4-0.8
			c1,0,1.8,0.3,2.3,0.8s0.8,1.3,0.8,2.2c0,1-0.3,1.8-0.9,2.4S133.6,32.9,132.6,32.9z M132.6,28.1c-0.4,0-0.8,0.2-1,0.5
			s-0.4,0.7-0.4,1.3c0,1.2,0.5,1.7,1.4,1.7c0.9,0,1.3-0.6,1.3-1.8C134,28.6,133.5,28.1,132.6,28.1z"/>
		<path class="st20" d="M136.7,32.6v-1.5c0.3,0.2,0.6,0.3,0.9,0.4s0.6,0.1,0.9,0.1c0.3,0,0.6,0,0.8-0.1s0.3-0.2,0.3-0.4
			c0-0.1,0-0.2-0.1-0.3s-0.2-0.1-0.3-0.2s-0.3-0.1-0.4-0.2s-0.3-0.1-0.5-0.2c-0.2-0.1-0.4-0.2-0.6-0.3s-0.3-0.2-0.5-0.4
			s-0.2-0.3-0.3-0.5s-0.1-0.4-0.1-0.6c0-0.3,0.1-0.6,0.2-0.9s0.3-0.4,0.6-0.6s0.5-0.3,0.8-0.3s0.6-0.1,1-0.1c0.3,0,0.5,0,0.8,0.1
			s0.5,0.1,0.8,0.2v1.4c-0.2-0.1-0.5-0.2-0.8-0.3s-0.5-0.1-0.8-0.1c-0.1,0-0.2,0-0.3,0s-0.2,0.1-0.3,0.1s-0.1,0.1-0.2,0.2
			s-0.1,0.1-0.1,0.2c0,0.1,0,0.2,0.1,0.3s0.2,0.1,0.3,0.2s0.2,0.1,0.4,0.2s0.3,0.1,0.4,0.1c0.2,0.1,0.5,0.2,0.7,0.3s0.4,0.2,0.5,0.4
			s0.3,0.3,0.3,0.5s0.1,0.4,0.1,0.7c0,0.4-0.1,0.7-0.2,0.9s-0.4,0.5-0.6,0.6s-0.6,0.3-0.9,0.3s-0.7,0.1-1,0.1
			C137.8,32.9,137.2,32.8,136.7,32.6z"/>
		<path class="st20" d="M145.2,32.9c-1,0-1.8-0.3-2.4-0.8s-0.9-1.3-0.9-2.3c0-1,0.3-1.8,0.9-2.3s1.4-0.8,2.4-0.8
			c1,0,1.8,0.3,2.3,0.8s0.8,1.3,0.8,2.2c0,1-0.3,1.8-0.9,2.4S146.2,32.9,145.2,32.9z M145.2,28.1c-0.4,0-0.8,0.2-1,0.5
			s-0.4,0.7-0.4,1.3c0,1.2,0.5,1.7,1.4,1.7c0.9,0,1.3-0.6,1.3-1.8C146.6,28.6,146.1,28.1,145.2,28.1z"/>
		<path class="st20" d="M153.4,25.3c-0.2-0.1-0.5-0.1-0.7-0.1c-0.6,0-0.9,0.3-0.9,1v0.6h1.4v1.4h-1.4v4.6H150v-4.6h-1v-1.4h1V26
			c0-0.7,0.2-1.2,0.7-1.7s1.1-0.6,1.8-0.6c0.4,0,0.7,0,0.9,0.1V25.3z"/>
		<path class="st20" d="M158,32.7c-0.3,0.1-0.7,0.2-1.2,0.2c-1.3,0-2-0.7-2-2v-2.7h-1v-1.4h1v-1.3l1.8-0.5v1.8h1.3v1.4h-1.3v2.4
			c0,0.6,0.2,0.9,0.7,0.9c0.2,0,0.4-0.1,0.6-0.2V32.7z"/>
		<path class="st20" d="M111.6,47.3h-1.9v-8.4h1.9V47.3z"/>
		<path class="st20" d="M119.2,47.3h-1.9v-0.8h0c-0.4,0.6-1,1-1.9,1c-0.8,0-1.4-0.3-1.8-0.8s-0.7-1.3-0.7-2.2c0-1,0.3-1.8,0.8-2.4
			s1.2-0.9,2-0.9c0.8,0,1.3,0.3,1.6,0.8h0v-3.6h1.9V47.3z M117.4,44.4v-0.5c0-0.4-0.1-0.7-0.3-1s-0.5-0.4-0.9-0.4
			c-0.4,0-0.7,0.2-1,0.5s-0.3,0.8-0.3,1.3c0,0.5,0.1,0.9,0.3,1.2s0.5,0.4,0.9,0.4c0.4,0,0.7-0.2,0.9-0.5S117.4,44.9,117.4,44.4z"/>
		<path class="st20" d="M126.2,44.8h-3.9c0.1,0.9,0.6,1.3,1.6,1.3c0.7,0,1.2-0.2,1.7-0.5V47c-0.6,0.3-1.3,0.4-2.2,0.4
			c-1,0-1.7-0.3-2.3-0.8s-0.8-1.3-0.8-2.2c0-1,0.3-1.8,0.9-2.4s1.3-0.9,2.1-0.9c0.9,0,1.6,0.3,2,0.8s0.7,1.2,0.7,2.1V44.8z
			 M124.5,43.7c0-0.9-0.3-1.3-1-1.3c-0.3,0-0.6,0.1-0.8,0.4s-0.3,0.6-0.4,0.9H124.5z"/>
		<path class="st20" d="M133.1,47.3h-1.8V44c0-0.9-0.3-1.4-1-1.4c-0.3,0-0.6,0.1-0.8,0.4s-0.3,0.6-0.3,0.9v3.4h-1.9v-6h1.9v0.9h0
			c0.4-0.7,1.1-1.1,1.9-1.1c1.3,0,2,0.8,2,2.5V47.3z"/>
		<path class="st20" d="M138.2,47.2c-0.3,0.1-0.7,0.2-1.2,0.2c-1.3,0-2-0.7-2-2v-2.7h-1v-1.4h1V40l1.8-0.5v1.8h1.3v1.4h-1.3v2.4
			c0,0.6,0.2,0.9,0.7,0.9c0.2,0,0.4-0.1,0.6-0.2V47.2z"/>
		<path class="st20" d="M140.2,40.3c-0.3,0-0.6-0.1-0.8-0.3s-0.3-0.4-0.3-0.7c0-0.3,0.1-0.5,0.3-0.7s0.5-0.3,0.8-0.3
			c0.3,0,0.6,0.1,0.8,0.3s0.3,0.4,0.3,0.7c0,0.3-0.1,0.5-0.3,0.7S140.5,40.3,140.2,40.3z M141.1,47.3h-1.9v-6h1.9V47.3z"/>
		<path class="st20" d="M146.3,47.2c-0.3,0.1-0.7,0.2-1.2,0.2c-1.3,0-2-0.7-2-2v-2.7h-1v-1.4h1V40l1.8-0.5v1.8h1.3v1.4h-1.3v2.4
			c0,0.6,0.2,0.9,0.7,0.9c0.2,0,0.4-0.1,0.6-0.2V47.2z"/>
		<path class="st20" d="M153,41.3l-2.4,6.5c-0.6,1.6-1.5,2.3-2.6,2.3c-0.4,0-0.8-0.1-1.1-0.2v-1.5c0.2,0.1,0.5,0.2,0.8,0.2
			c0.5,0,0.8-0.2,1-0.7l0.3-0.7l-2.4-6h2.1l1.1,3.7c0.1,0.2,0.1,0.5,0.2,0.8h0c0-0.2,0.1-0.5,0.2-0.8l1.1-3.7H153z"/>
		<path class="st20" d="M108.9,58.9v2.9H107v-8.4h3c2.1,0,3.2,0.9,3.2,2.7c0,0.8-0.3,1.5-0.9,2s-1.4,0.8-2.4,0.8H108.9z M108.9,54.8
			v2.6h0.7c1,0,1.5-0.4,1.5-1.3c0-0.9-0.5-1.3-1.5-1.3H108.9z"/>
		<path class="st20" d="M116.1,61.8h-1.9v-8.9h1.9V61.8z"/>
		<path class="st20" d="M122.6,61.8h-1.8v-0.9h0c-0.4,0.7-1,1-1.8,1c-0.6,0-1-0.2-1.4-0.5s-0.5-0.8-0.5-1.3c0-1.2,0.7-1.8,2.1-2
			l1.6-0.2c0-0.7-0.4-1-1.1-1c-0.7,0-1.4,0.2-2,0.6v-1.4c0.3-0.1,0.6-0.3,1.1-0.4s0.9-0.2,1.2-0.2c1.7,0,2.6,0.9,2.6,2.6V61.8z
			 M120.9,59.4V59l-1.1,0.1c-0.6,0.1-0.9,0.3-0.9,0.8c0,0.2,0.1,0.4,0.2,0.5s0.3,0.2,0.6,0.2c0.3,0,0.6-0.1,0.8-0.4
			S120.9,59.7,120.9,59.4z"/>
		<path class="st20" d="M127.7,61.7c-0.3,0.1-0.7,0.2-1.2,0.2c-1.3,0-2-0.7-2-2v-2.7h-1v-1.4h1v-1.3l1.8-0.5v1.8h1.3v1.4h-1.3v2.4
			c0,0.6,0.2,0.9,0.7,0.9c0.2,0,0.4-0.1,0.6-0.2V61.7z"/>
		<path class="st20" d="M132.7,54.3c-0.2-0.1-0.5-0.1-0.7-0.1c-0.6,0-0.9,0.3-0.9,1v0.6h1.4v1.4h-1.4v4.6h-1.8v-4.6h-1v-1.4h1V55
			c0-0.7,0.2-1.2,0.7-1.7s1.1-0.6,1.8-0.6c0.4,0,0.7,0,0.9,0.1V54.3z"/>
		<path class="st20" d="M136.2,61.9c-1,0-1.8-0.3-2.4-0.8s-0.9-1.3-0.9-2.3c0-1,0.3-1.8,0.9-2.3s1.4-0.8,2.4-0.8
			c1,0,1.8,0.3,2.3,0.8s0.8,1.3,0.8,2.2c0,1-0.3,1.8-0.9,2.4S137.2,61.9,136.2,61.9z M136.3,57.1c-0.4,0-0.8,0.2-1,0.5
			s-0.4,0.7-0.4,1.3c0,1.2,0.5,1.7,1.4,1.7c0.9,0,1.3-0.6,1.3-1.8C137.6,57.6,137.2,57.1,136.3,57.1z"/>
		<path class="st20" d="M144.6,57.5c-0.2-0.1-0.5-0.2-0.8-0.2c-0.4,0-0.7,0.1-0.9,0.4s-0.3,0.7-0.3,1.2v2.9h-1.9v-6h1.9v1.1h0
			c0.3-0.8,0.8-1.2,1.6-1.2c0.2,0,0.3,0,0.5,0.1V57.5z"/>
		<path class="st20" d="M155,61.8h-1.8v-3.4c0-0.9-0.3-1.3-1-1.3c-0.3,0-0.6,0.1-0.7,0.4s-0.3,0.6-0.3,1v3.4h-1.9v-3.5
			c0-0.8-0.3-1.3-0.9-1.3c-0.3,0-0.6,0.1-0.8,0.4s-0.3,0.6-0.3,1v3.3h-1.9v-6h1.9v0.9h0c0.2-0.3,0.5-0.6,0.8-0.8s0.7-0.3,1.1-0.3
			c0.8,0,1.4,0.4,1.7,1.1c0.5-0.7,1.1-1.1,2-1.1c1.3,0,2,0.8,2,2.4V61.8z"/>
	</g>
</g>
</svg>
